<?xml version="1.0" encoding="UTF-8"?>
<svg version="1.1" xmlns="http://www.w3.org/2000/svg" width="1280" height="1280">
<path d="M0 0 C422.4 0 844.8 0 1280 0 C1280 422.4 1280 844.8 1280 1280 C857.6 1280 435.2 1280 0 1280 C0 857.6 0 435.2 0 0 Z " fill="#000000" transform="translate(0,0)"/>
<path d="M0 0 C0.95531616 0.00027191 1.91063232 0.00054382 2.89489746 0.00082397 C16.70442935 0.01890988 30.29361474 0.39520824 44 2.1875 C46.04412402 2.43221907 48.08840343 2.6756426 50.1328125 2.91796875 C66.14340726 4.87407593 66.14340726 4.87407593 72.83984375 6.67382812 C75.47341085 7.30007419 78.11432343 7.70912122 80.7890625 8.125 C86.78048129 9.09323429 92.54279942 10.52177613 98.375 12.1875 C99.43517334 12.48873779 100.49534668 12.78997559 101.58764648 13.1003418 C129.23324899 21.09094454 156.61797582 30.47347753 182 44.1875 C183.27278809 44.87320068 183.27278809 44.87320068 184.57128906 45.57275391 C204.80772382 56.55814552 223.82447094 69.06047256 242 83.1875 C242.94230469 83.91582031 243.88460937 84.64414062 244.85546875 85.39453125 C250.80677619 90.0725357 256.42728494 95.06771969 262 100.1875 C263.03235455 101.1265193 264.06491573 102.06531146 265.09765625 103.00390625 C270.76634809 108.17412069 276.35076907 113.42364673 281.8125 118.8125 C282.33440918 119.32143799 282.85631836 119.83037598 283.39404297 120.35473633 C284.63598631 121.59351683 285.82373597 122.88619169 287 124.1875 C287 124.8475 287 125.5075 287 126.1875 C287.99 126.5175 288.98 126.8475 290 127.1875 C291.48011069 128.81963757 292.88758718 130.51840189 294.25 132.25 C296.88307872 135.57869703 299.54732476 138.82316448 302.37109375 141.9921875 C306.10493822 146.23436981 309.481935 150.68747902 312.8125 155.25 C313.41924561 156.07854492 314.02599121 156.90708984 314.65112305 157.76074219 C323.44182038 169.83764896 331.48640034 182.2810481 339 195.1875 C339.3697998 195.81736816 339.73959961 196.44723633 340.12060547 197.09619141 C346.00990409 207.16037676 351.14412532 217.48430905 356.01708984 228.07470703 C356.84846011 229.86176075 357.71177634 231.63389983 358.58203125 233.40234375 C371.09363232 259.08042308 380.79823995 289.25476391 384.60546875 317.61328125 C384.9425867 320.29669093 384.9425867 320.29669093 386 323.1875 C386.43400815 326.24528468 386.78513457 329.30743732 387.12255859 332.37719727 C387.21102051 333.18084717 387.29948242 333.98449707 387.390625 334.8125 C387.53274414 336.10607422 387.53274414 336.10607422 387.67773438 337.42578125 C388.014348 340.31045805 388.4031442 343.18509295 388.796875 346.0625 C392.52573385 374.73289212 392.54057834 404.49133112 389 433.1875 C388.79094979 435.06762876 388.58263885 436.94783985 388.375 438.828125 C386.00804049 459.32620199 381.64199374 479.25694793 375.66259766 498.99414062 C375.09840854 500.86174378 374.55305628 502.73502055 374.01171875 504.609375 C361.45003624 547.33016309 340.79747808 587.69103913 314 623.1875 C313.55172852 623.78739746 313.10345703 624.38729492 312.64160156 625.00537109 C297.48972495 645.26713494 280.29416825 665.05933199 260.984375 681.47265625 C259.61309807 682.65767706 258.27060031 683.87653215 256.953125 685.12109375 C249.28093716 692.33030474 240.80596805 698.38805685 232.27880859 704.53759766 C230.29592823 705.97324213 228.32664802 707.42458992 226.36328125 708.88671875 C200.04673602 728.33891614 169.73012755 744.05071693 139 755.1875 C137.687068 755.68636452 136.3745221 756.1862473 135.0625 756.6875 C133.70869951 757.18849062 132.35448133 757.68835303 131 758.1875 C130.02160156 758.55617188 129.04320312 758.92484375 128.03515625 759.3046875 C102.58059663 768.69342541 75.49904366 774.46921009 48.625 777.875 C47.21915649 778.05397827 47.21915649 778.05397827 45.78491211 778.23657227 C30.83779222 780.0336571 15.97165482 780.39116049 0.9375 780.375 C-0.0153186 780.37472809 -0.96813721 780.37445618 -1.9498291 780.37417603 C-14.87860114 780.35720806 -27.68861913 780.17906658 -40.52783203 778.50830078 C-43.26439714 778.15319052 -46.00436299 777.83996932 -48.74609375 777.52734375 C-61.00130316 776.08407121 -72.99446163 774.0271525 -85 771.1875 C-86.08007324 770.93452148 -87.16014648 770.68154297 -88.27294922 770.42089844 C-102.48359701 767.06497968 -116.37140587 763.45722307 -130 758.1875 C-131.22589844 757.73503906 -132.45179688 757.28257812 -133.71484375 756.81640625 C-160.06980047 746.9198252 -185.35420356 734.47704297 -209 719.1875 C-209.64291992 718.77580566 -210.28583984 718.36411133 -210.94824219 717.93994141 C-220.98558857 711.49101021 -230.5499529 704.46427364 -240 697.1875 C-240.92683594 696.47722656 -241.85367188 695.76695312 -242.80859375 695.03515625 C-248.48159412 690.59660076 -253.7951761 685.80375189 -259.06640625 680.90234375 C-261.66018607 678.50197494 -264.28898111 676.15195348 -266.9375 673.8125 C-275.83644894 665.81779909 -284.27418626 657.32098319 -292 648.1875 C-292.8559375 647.22070312 -293.711875 646.25390625 -294.59375 645.2578125 C-326.83706987 608.68103383 -349.8430725 565.56925529 -367 520.1875 C-367.29003906 519.43404297 -367.58007812 518.68058594 -367.87890625 517.90429688 C-372.07830891 506.95947691 -374.98125962 495.82224005 -377.703125 484.42578125 C-378.37641717 481.61405458 -379.08112393 478.95835516 -380.046875 476.23046875 C-381.58575437 471.31740716 -382.23029385 466.27022682 -383 461.1875 C-383.09839172 460.54433838 -383.19678345 459.90117676 -383.29815674 459.23852539 C-383.96105329 454.89744212 -384.60307475 450.55362339 -385.23217773 446.20751953 C-385.45140958 444.70092846 -385.67339058 443.19473473 -385.89819336 441.68896484 C-388.43560199 424.68517608 -389.20769895 407.86660738 -389.1875 390.6875 C-389.18722809 389.81143097 -389.18695618 388.93536194 -389.18667603 388.03274536 C-389.16671549 373.99442321 -388.65010851 360.13933067 -387 346.1875 C-386.83927002 344.75398193 -386.83927002 344.75398193 -386.67529297 343.29150391 C-384.40751373 323.28421139 -380.56896899 304.06143397 -374.7734375 284.78125 C-374.01707164 282.24475034 -373.28649229 279.70215696 -372.5625 277.15625 C-363.1196263 244.30097347 -348.51829342 212.94163989 -330.5 183.9375 C-329.88286133 182.94306885 -329.26572266 181.9486377 -328.62988281 180.92407227 C-324.35873772 174.13209418 -319.79128699 167.62140248 -315 161.1875 C-314.55591797 160.58502441 -314.11183594 159.98254883 -313.65429688 159.36181641 C-306.13340458 149.16937237 -298.33971232 139.39787645 -289.71484375 130.12109375 C-287.31447494 127.52731393 -284.96445348 124.89851889 -282.625 122.25 C-275.2142918 114.0010968 -267.38612315 105.99667514 -258.9140625 98.83203125 C-257.56729665 97.67491202 -256.25181137 96.48087741 -254.9609375 95.26171875 C-247.28022275 88.04290266 -238.79476401 81.98049638 -230.25683594 75.82421875 C-228.3366382 74.43163917 -226.43373009 73.0206963 -224.5390625 71.59375 C-186.93911726 43.74193871 -142.90527828 24.60780713 -98 12.1875 C-97.26386475 11.9819751 -96.52772949 11.7764502 -95.76928711 11.56469727 C-79.61685459 7.12693131 -63.03392748 4.60612559 -46.4375 2.5 C-45.49970703 2.38068115 -44.56191406 2.2613623 -43.59570312 2.13842773 C-29.04793951 0.37602785 -14.6355133 -0.01565989 0 0 Z " fill="#000000" transform="translate(639,249.8125)"/>
<path d="M0 0 C0.95531616 0.00027191 1.91063232 0.00054382 2.89489746 0.00082397 C16.70442935 0.01890988 30.29361474 0.39520824 44 2.1875 C46.04412402 2.43221907 48.08840343 2.6756426 50.1328125 2.91796875 C66.14340726 4.87407593 66.14340726 4.87407593 72.83984375 6.67382812 C75.47341085 7.30007419 78.11432343 7.70912122 80.7890625 8.125 C86.78048129 9.09323429 92.54279942 10.52177613 98.375 12.1875 C99.43517334 12.48873779 100.49534668 12.78997559 101.58764648 13.1003418 C129.23324899 21.09094454 156.61797582 30.47347753 182 44.1875 C183.27278809 44.87320068 183.27278809 44.87320068 184.57128906 45.57275391 C204.80772382 56.55814552 223.82447094 69.06047256 242 83.1875 C242.94230469 83.91582031 243.88460937 84.64414062 244.85546875 85.39453125 C250.80677619 90.0725357 256.42728494 95.06771969 262 100.1875 C263.03235455 101.1265193 264.06491573 102.06531146 265.09765625 103.00390625 C270.76634809 108.17412069 276.35076907 113.42364673 281.8125 118.8125 C282.33440918 119.32143799 282.85631836 119.83037598 283.39404297 120.35473633 C284.63598631 121.59351683 285.82373597 122.88619169 287 124.1875 C287 124.8475 287 125.5075 287 126.1875 C287.99 126.5175 288.98 126.8475 290 127.1875 C291.48011069 128.81963757 292.88758718 130.51840189 294.25 132.25 C296.88307872 135.57869703 299.54732476 138.82316448 302.37109375 141.9921875 C306.10493822 146.23436981 309.481935 150.68747902 312.8125 155.25 C313.41924561 156.07854492 314.02599121 156.90708984 314.65112305 157.76074219 C323.44182038 169.83764896 331.48640034 182.2810481 339 195.1875 C339.3697998 195.81736816 339.73959961 196.44723633 340.12060547 197.09619141 C346.00990409 207.16037676 351.14412532 217.48430905 356.01708984 228.07470703 C356.84846011 229.86176075 357.71177634 231.63389983 358.58203125 233.40234375 C371.09363232 259.08042308 380.79823995 289.25476391 384.60546875 317.61328125 C384.9425867 320.29669093 384.9425867 320.29669093 386 323.1875 C386.43400815 326.24528468 386.78513457 329.30743732 387.12255859 332.37719727 C387.21102051 333.18084717 387.29948242 333.98449707 387.390625 334.8125 C387.53274414 336.10607422 387.53274414 336.10607422 387.67773438 337.42578125 C388.014348 340.31045805 388.4031442 343.18509295 388.796875 346.0625 C392.52573385 374.73289212 392.54057834 404.49133112 389 433.1875 C388.79094979 435.06762876 388.58263885 436.94783985 388.375 438.828125 C386.00804049 459.32620199 381.64199374 479.25694793 375.66259766 498.99414062 C375.09840854 500.86174378 374.55305628 502.73502055 374.01171875 504.609375 C361.45003624 547.33016309 340.79747808 587.69103913 314 623.1875 C313.55172852 623.78739746 313.10345703 624.38729492 312.64160156 625.00537109 C297.48972495 645.26713494 280.29416825 665.05933199 260.984375 681.47265625 C259.61309807 682.65767706 258.27060031 683.87653215 256.953125 685.12109375 C249.28093716 692.33030474 240.80596805 698.38805685 232.27880859 704.53759766 C230.29592823 705.97324213 228.32664802 707.42458992 226.36328125 708.88671875 C200.04673602 728.33891614 169.73012755 744.05071693 139 755.1875 C137.687068 755.68636452 136.3745221 756.1862473 135.0625 756.6875 C133.70869951 757.18849062 132.35448133 757.68835303 131 758.1875 C130.02160156 758.55617188 129.04320312 758.92484375 128.03515625 759.3046875 C102.58059663 768.69342541 75.49904366 774.46921009 48.625 777.875 C47.21915649 778.05397827 47.21915649 778.05397827 45.78491211 778.23657227 C30.83779222 780.0336571 15.97165482 780.39116049 0.9375 780.375 C-0.0153186 780.37472809 -0.96813721 780.37445618 -1.9498291 780.37417603 C-14.87860114 780.35720806 -27.68861913 780.17906658 -40.52783203 778.50830078 C-43.26439714 778.15319052 -46.00436299 777.83996932 -48.74609375 777.52734375 C-61.00130316 776.08407121 -72.99446163 774.0271525 -85 771.1875 C-86.08007324 770.93452148 -87.16014648 770.68154297 -88.27294922 770.42089844 C-102.48359701 767.06497968 -116.37140587 763.45722307 -130 758.1875 C-131.22589844 757.73503906 -132.45179688 757.28257812 -133.71484375 756.81640625 C-160.06980047 746.9198252 -185.35420356 734.47704297 -209 719.1875 C-209.64291992 718.77580566 -210.28583984 718.36411133 -210.94824219 717.93994141 C-220.98558857 711.49101021 -230.5499529 704.46427364 -240 697.1875 C-240.92683594 696.47722656 -241.85367188 695.76695312 -242.80859375 695.03515625 C-248.48159412 690.59660076 -253.7951761 685.80375189 -259.06640625 680.90234375 C-261.66018607 678.50197494 -264.28898111 676.15195348 -266.9375 673.8125 C-275.83644894 665.81779909 -284.27418626 657.32098319 -292 648.1875 C-292.8559375 647.22070312 -293.711875 646.25390625 -294.59375 645.2578125 C-326.83706987 608.68103383 -349.8430725 565.56925529 -367 520.1875 C-367.29003906 519.43404297 -367.58007812 518.68058594 -367.87890625 517.90429688 C-372.07830891 506.95947691 -374.98125962 495.82224005 -377.703125 484.42578125 C-378.37641717 481.61405458 -379.08112393 478.95835516 -380.046875 476.23046875 C-381.58575437 471.31740716 -382.23029385 466.27022682 -383 461.1875 C-383.09839172 460.54433838 -383.19678345 459.90117676 -383.29815674 459.23852539 C-383.96105329 454.89744212 -384.60307475 450.55362339 -385.23217773 446.20751953 C-385.45140958 444.70092846 -385.67339058 443.19473473 -385.89819336 441.68896484 C-388.43560199 424.68517608 -389.20769895 407.86660738 -389.1875 390.6875 C-389.18722809 389.81143097 -389.18695618 388.93536194 -389.18667603 388.03274536 C-389.16671549 373.99442321 -388.65010851 360.13933067 -387 346.1875 C-386.83927002 344.75398193 -386.83927002 344.75398193 -386.67529297 343.29150391 C-384.40751373 323.28421139 -380.56896899 304.06143397 -374.7734375 284.78125 C-374.01707164 282.24475034 -373.28649229 279.70215696 -372.5625 277.15625 C-363.1196263 244.30097347 -348.51829342 212.94163989 -330.5 183.9375 C-329.88286133 182.94306885 -329.26572266 181.9486377 -328.62988281 180.92407227 C-324.35873772 174.13209418 -319.79128699 167.62140248 -315 161.1875 C-314.55591797 160.58502441 -314.11183594 159.98254883 -313.65429688 159.36181641 C-306.13340458 149.16937237 -298.33971232 139.39787645 -289.71484375 130.12109375 C-287.31447494 127.52731393 -284.96445348 124.89851889 -282.625 122.25 C-275.2142918 114.0010968 -267.38612315 105.99667514 -258.9140625 98.83203125 C-257.56729665 97.67491202 -256.25181137 96.48087741 -254.9609375 95.26171875 C-247.28022275 88.04290266 -238.79476401 81.98049638 -230.25683594 75.82421875 C-228.3366382 74.43163917 -226.43373009 73.0206963 -224.5390625 71.59375 C-186.93911726 43.74193871 -142.90527828 24.60780713 -98 12.1875 C-97.26386475 11.9819751 -96.52772949 11.7764502 -95.76928711 11.56469727 C-79.61685459 7.12693131 -63.03392748 4.60612559 -46.4375 2.5 C-45.49970703 2.38068115 -44.56191406 2.2613623 -43.59570312 2.13842773 C-29.04793951 0.37602785 -14.6355133 -0.01565989 0 0 Z M-27 31.1875 C-28.97007913 31.27814781 -30.94038649 31.36696786 -32.91162109 31.42749023 C-43.16350986 31.76333967 -52.82852015 33.55637381 -62.82910156 35.73388672 C-65.62253713 36.3175803 -68.4283736 36.76310904 -71.25 37.1875 C-90.06022068 40.23071562 -109.46912316 45.80711957 -127 53.1875 C-127.73057617 53.48994629 -128.46115234 53.79239258 -129.21386719 54.10400391 C-150.65534232 62.99279835 -171.40794958 72.68808492 -191 85.1875 C-191.78777832 85.68926758 -192.57555664 86.19103516 -193.38720703 86.70800781 C-203.71590845 93.33525382 -213.47318522 100.46046131 -223 108.1875 C-223.87914062 108.87328125 -224.75828125 109.5590625 -225.6640625 110.265625 C-233.42673423 116.32790197 -240.74546989 122.91447193 -247.6953125 129.89453125 C-250 132.1875 -250 132.1875 -252.5625 134.1875 C-255.14477053 136.30628607 -256.94890086 138.55952922 -259 141.1875 C-260.66093934 142.85987438 -262.32855781 144.52562258 -264 146.1875 C-271.43542507 153.92791422 -278.35842196 161.8590213 -284.74365234 170.49414062 C-286.03140977 172.22983544 -287.33682024 173.95117748 -288.64453125 175.671875 C-312.71385952 207.59253327 -331.01601735 244.09245984 -343 282.1875 C-343.25668457 282.99622559 -343.51336914 283.80495117 -343.77783203 284.63818359 C-362.07153248 342.60032923 -367.25868194 412.56860528 -350.0546875 471.515625 C-349.02957721 475.08452751 -348.15217221 478.66241108 -347.29467773 482.27392578 C-345.3601127 490.36222784 -343.12271124 498.29440166 -340.5 506.1875 C-340.09140747 507.42234131 -340.09140747 507.42234131 -339.67456055 508.68212891 C-323.846671 555.22161253 -297.15747892 597.55840577 -264.1953125 633.76953125 C-262.65683203 635.46404977 -261.13187573 637.17089979 -259.6171875 638.88671875 C-258.83601563 639.76972656 -258.05484375 640.65273438 -257.25 641.5625 C-256.55390625 642.35398437 -255.8578125 643.14546875 -255.140625 643.9609375 C-252.90685202 646.2843875 -250.52165711 648.18409757 -248 650.1875 C-246.31730881 651.83798657 -244.65142371 653.50572853 -243 655.1875 C-234.47870229 663.4684226 -225.52993873 670.80011294 -215.91918945 677.7824707 C-213.9385422 679.23249295 -211.98042103 680.70963897 -210.0234375 682.19140625 C-181.97585354 703.2517212 -149.39189618 720.36311155 -116 731.1875 C-114.75476563 731.6103125 -113.50953125 732.033125 -112.2265625 732.46875 C-79.51874689 743.53690452 -45.45842109 749.1839832 -11 750.1875 C-9.74767578 750.22601074 -8.49535156 750.26452148 -7.20507812 750.30419922 C20.3952864 751.02617648 47.29668731 748.53206393 74.29736328 742.75878906 C76.72389018 742.24586468 79.15284196 741.76478648 81.58984375 741.3046875 C105.17274057 736.82841338 128.22263822 728.1514119 150 718.1875 C150.85223145 717.80513184 151.70446289 717.42276367 152.58251953 717.02880859 C170.96436975 708.76162048 188.51338889 698.79849746 205 687.1875 C205.845625 686.59195313 206.69125 685.99640625 207.5625 685.3828125 C210.39899554 683.3483023 213.20243376 681.27528768 216 679.1875 C216.70511719 678.66365723 217.41023437 678.13981445 218.13671875 677.60009766 C220.49288778 675.84530427 222.84106138 674.08027826 225.1875 672.3125 C226.33931763 671.45458862 226.33931763 671.45458862 227.5144043 670.5793457 C228.22508057 670.04011475 228.93575684 669.50088379 229.66796875 668.9453125 C230.31016357 668.4620752 230.9523584 667.97883789 231.61401367 667.48095703 C232.07138916 667.05411621 232.52876465 666.62727539 233 666.1875 C233 665.5275 233 664.8675 233 664.1875 C233.55171875 663.95417969 234.1034375 663.72085938 234.671875 663.48046875 C237.61255267 661.84730716 239.79077251 659.79410793 242.25 657.5 C245.44469423 654.53304425 248.65559821 651.61101803 252 648.8125 C256.96807112 644.49464678 261.29010038 639.56146312 265.67138672 634.66455078 C266.87462363 633.32688388 268.09458854 632.00431071 269.31640625 630.68359375 C275.62567521 623.83256288 281.33308597 616.56898647 287 609.1875 C287.77472656 608.18589844 288.54945313 607.18429687 289.34765625 606.15234375 C306.0807467 584.22520759 319.68938866 560.31245768 331 535.1875 C331.55228271 533.97682861 331.55228271 533.97682861 332.11572266 532.74169922 C340.52758283 514.17826204 346.48636397 494.75536305 350.89453125 474.87890625 C351.60905246 471.67897853 352.49286375 468.60119441 353.5078125 465.484375 C355.47506831 459.06729982 356.23583542 452.51916861 357.0625 445.875 C357.23335881 444.52335111 357.40425779 443.1717073 357.57519531 441.82006836 C357.91073426 439.14543464 358.23763985 436.47011567 358.56103516 433.79394531 C358.92106196 430.83603881 359.3051484 427.88315344 359.69921875 424.9296875 C364.14613505 388.97478764 361.19754374 351.50899035 354 316.1875 C353.83242188 315.36459473 353.66484375 314.54168945 353.4921875 313.69384766 C352.47308124 308.8174674 351.28405568 304.00033872 350 299.1875 C349.66476318 297.90721924 349.66476318 297.90721924 349.32275391 296.60107422 C337.20511256 250.91828525 315.69397507 208.61237209 287 171.1875 C286.36191406 170.35001221 286.36191406 170.35001221 285.7109375 169.49560547 C279.96178242 161.96664982 273.9837751 154.78959564 267.50390625 147.87890625 C265.33526005 145.54786533 263.24963639 143.17470982 261.1875 140.75 C258.36479857 137.48940932 255.35827347 134.88871996 252 132.1875 C249.78512764 130.02941924 247.61810606 127.83587414 245.484375 125.59765625 C241.56308545 121.55726211 237.41843534 118.01350399 232.984375 114.546875 C230.7382451 112.7711388 228.52691418 110.97332595 226.328125 109.140625 C218.08106652 102.28809504 209.6847006 96.00353033 200.64306641 90.23828125 C199.20491024 89.31854512 197.77909287 88.37957327 196.35546875 87.4375 C167.77923423 68.71669124 136.99711108 55.45387683 104.57861328 45.02001953 C102.43187841 44.32693433 100.29108629 43.61955848 98.15234375 42.90234375 C89.88618459 40.2084158 81.54382871 38.6819948 73 37.1875 C71.33194326 36.86119401 69.66503267 36.52890166 68 36.1875 C67.21496094 36.0328125 66.42992187 35.878125 65.62109375 35.71875 C63.67130452 35.32356172 61.72666033 34.90281653 59.78515625 34.46875 C39.50331866 30.21233078 18.82888847 30.00611691 -1.8125 30 C-2.72111786 29.99900299 -3.62973572 29.99800598 -4.56588745 29.99697876 C-7.17551813 29.99730351 -9.78493656 30.00634107 -12.39453125 30.01953125 C-13.17472626 30.02073975 -13.95492126 30.02194824 -14.75875854 30.02319336 C-18.95248688 30.05908783 -22.86297311 30.42089916 -27 31.1875 Z " fill="#FBFBFB" transform="translate(639,249.8125)"/>
<path d="M0 0 C1.22867961 1.4611325 2.45322104 2.92621081 3.64453125 4.41796875 C5.51891829 6.60565392 7.72753229 8.23883753 10 10 C13.49270051 13.31358767 16.61127961 16.83690928 19.66796875 20.546875 C20.9579691 22.12779183 20.9579691 22.12779183 23 23 C23 23.66 23 24.32 23 25 C23.66 25 24.32 25 25 25 C23.54721611 28.3367038 21.72208531 30.52520252 19.15292358 33.08758545 C18.35082962 33.89242874 17.54873566 34.69727203 16.72233582 35.52650452 C15.4006414 36.8374131 15.4006414 36.8374131 14.05224609 38.17480469 C13.12536484 39.101978 12.19848358 40.02915131 11.24351501 40.98442078 C8.70478483 43.52372458 6.15993719 46.05681635 3.61394835 48.58883953 C0.95313773 51.23714437 -1.70200707 53.89111721 -4.35775757 56.54449463 C-9.38630147 61.56682332 -14.41992171 66.58403216 -19.45538461 71.59942269 C-25.18840745 77.31008784 -30.9157497 83.02643567 -36.64262128 88.74326849 C-48.42210386 100.50184813 -60.20870149 112.25326895 -72 124 C-70.27016834 129.25303795 -68.28762043 134.3602579 -66.21875 139.48828125 C-63.57032986 147.11946621 -62.63578342 154.2491458 -62.6875 162.3125 C-62.69313965 163.23820801 -62.6987793 164.16391602 -62.70458984 165.11767578 C-62.85652996 173.69702704 -64.3160704 180.9851823 -67.60546875 188.9140625 C-67.88567871 189.59162598 -68.16588867 190.26918945 -68.45458984 190.96728516 C-69.01517554 192.29552549 -69.59426917 193.61614566 -70.19384766 194.92724609 C-71.79727208 198.35587136 -71.79727208 198.35587136 -71.3036747 201.94849205 C-69.80439646 204.30780854 -68.13701077 206.10265134 -66.15292358 208.0741272 C-65.35082962 208.87608017 -64.54873566 209.67803314 -63.72233582 210.50428772 C-62.84120621 211.37508469 -61.9600766 212.24588165 -61.05224609 213.14306641 C-59.6295533 214.56127641 -58.20686076 215.97948666 -56.78417802 217.39770675 C-55.256306 218.91884214 -53.72597682 220.43746566 -52.19492722 221.95540237 C-49.00522616 225.11805851 -45.82316783 228.28832937 -42.64224243 231.45980835 C-35.89238809 238.18746948 -29.13411502 244.90664485 -22.375 251.625 C-15.07140178 258.88458762 -7.76925058 266.14559523 -0.47679007 273.41637361 C2.68829354 276.57146861 5.85819592 279.72161773 9.03181863 282.86812234 C10.52737709 284.35238378 12.02065678 285.83889216 13.51292419 287.32646179 C15.33594662 289.14371821 17.16259721 290.95734447 18.99339294 292.76676941 C19.78984726 293.56308273 20.58630157 294.35939606 21.40689087 295.17984009 C22.1048559 295.8733639 22.80282093 296.5668877 23.52193642 297.28142738 C25 299 25 299 25 301 C23.5388675 302.22867961 22.07378919 303.45322104 20.58203125 304.64453125 C18.39434608 306.51891829 16.76116247 308.72753229 15 311 C13.35353315 312.68662458 11.68816933 314.35511706 10 316 C9.443125 316.598125 8.88625 317.19625 8.3125 317.8125 C7 319 7 319 5 319 C4.67 319.99 4.34 320.98 4 322 C2.1875 323.75 2.1875 323.75 0 325 C-3.73101867 324.62526359 -5.50130891 322.86971765 -8.08758545 320.2731781 C-8.89242874 319.4724588 -9.69727203 318.6717395 -10.52650452 317.84675598 C-11.40044357 316.9620311 -12.27438263 316.07730621 -13.17480469 315.16577148 C-14.101978 314.23903625 -15.02915131 313.31230103 -15.98442078 312.35748291 C-18.52598818 309.8167767 -21.05819593 307.26692297 -23.58883953 304.71534228 C-26.2353588 302.05007701 -28.89036867 299.39329753 -31.54449463 296.73561096 C-36.56883892 291.70194012 -41.58548656 286.66067038 -46.59942269 281.61663443 C-52.30811628 275.87441588 -58.02532453 270.14070735 -63.74326849 264.40770233 C-75.50502132 252.61458664 -87.25602021 240.81081534 -99 229 C-100.43986226 229.47638815 -101.87941955 229.95369812 -103.31884766 230.43139648 C-104.12053375 230.69709946 -104.92221985 230.96280243 -105.74819946 231.23655701 C-108.3195661 232.10834463 -110.8452938 233.076952 -113.375 234.0625 C-132.54742793 240.95506707 -151.99343638 239.25291128 -170.40625 231.0859375 C-173.61668992 229.67977605 -173.61668992 229.67977605 -177 229 C-179.13353276 230.39368534 -179.13353276 230.39368534 -181.15005493 232.5622406 C-181.96883621 233.37703888 -182.78761749 234.19183716 -183.63121033 235.03132629 C-184.52070877 235.94194321 -185.41020721 236.85256012 -186.32666016 237.79077148 C-187.27856828 238.74736247 -188.23159407 239.7028424 -189.18565369 240.6572876 C-191.23978967 242.71706966 -193.28575141 244.78453413 -195.32579422 246.85827446 C-198.54878126 250.1344328 -201.78902831 253.3931438 -205.03182983 256.64967346 C-210.15656968 261.80030377 -215.26928033 266.96269158 -220.37710416 272.13009268 C-229.52964977 281.38884225 -238.70000596 290.62992016 -247.8783077 299.86313301 C-251.10144678 303.10656305 -254.31850231 306.35587833 -257.53076577 309.61007869 C-259.52621199 311.62992845 -261.52562586 313.64581636 -263.52601814 315.6607666 C-264.90073894 317.04815477 -266.27035585 318.44059434 -267.6398468 319.83314514 C-268.45298843 320.65076324 -269.26613007 321.46838135 -270.10391235 322.31077576 C-270.81218485 323.02738593 -271.52045734 323.74399611 -272.25019264 324.48232174 C-274 326 -274 326 -276 326 C-277.23581672 324.56378057 -278.46576988 323.12169464 -279.65234375 321.64453125 C-282.57031065 318.08376584 -285.90745025 315.05765671 -289.4375 312.125 C-292.57631376 309.48647752 -295.16886194 306.6068645 -297.73828125 303.41796875 C-298.96479293 301.8630558 -298.96479293 301.8630558 -301 301 C-299.54721611 297.6632962 -297.72208531 295.47479748 -295.15292358 292.91241455 C-294.35082962 292.10757126 -293.54873566 291.30272797 -292.72233582 290.47349548 C-291.84120621 289.59955643 -290.9600766 288.72561737 -290.05224609 287.82519531 C-289.12536484 286.898022 -288.19848358 285.97084869 -287.24351501 285.01557922 C-284.70478483 282.47627542 -282.15993719 279.94318365 -279.61394835 277.41116047 C-276.95313773 274.76285563 -274.29799293 272.10888279 -271.64224243 269.45550537 C-266.61369853 264.43317668 -261.58007829 259.41596784 -256.54461539 254.40057731 C-250.81159255 248.68991216 -245.0842503 242.97356433 -239.35737872 237.25673151 C-227.57789614 225.49815187 -215.79129851 213.74673105 -204 202 C-204.47122144 200.57751223 -204.94321532 199.15528033 -205.41552734 197.7331543 C-205.67828461 196.94112106 -205.94104187 196.14908783 -206.21176147 195.33305359 C-207.68704249 190.96646968 -209.31338694 186.65385525 -210.9140625 182.33203125 C-216.35545437 165.63596195 -213.58976815 146.33512747 -206.125 130.8125 C-205.67382812 129.97332031 -205.22265625 129.13414062 -204.7578125 128.26953125 C-203.75272303 126.05422058 -203.75272303 126.05422058 -204.71219444 124.11278725 C-206.1860556 121.69475524 -207.83741348 119.92276185 -209.84707642 117.9258728 C-210.64917038 117.12391983 -211.45126434 116.32196686 -212.27766418 115.49571228 C-213.15879379 114.62491531 -214.0399234 113.75411835 -214.94775391 112.85693359 C-216.3704467 111.43872359 -217.79313924 110.02051334 -219.21582198 108.60229325 C-220.743694 107.08115786 -222.27402318 105.56253434 -223.80507278 104.04459763 C-226.99477384 100.88194149 -230.17683217 97.71167063 -233.35775757 94.54019165 C-240.10761191 87.81253052 -246.86588498 81.09335515 -253.625 74.375 C-260.92859822 67.11541238 -268.23074942 59.85440477 -275.52320993 52.58362639 C-278.68829354 49.42853139 -281.85819592 46.27838227 -285.03181863 43.13187766 C-286.52737709 41.64761622 -288.02065678 40.16110784 -289.51292419 38.67353821 C-291.33594662 36.85628179 -293.16259721 35.04265553 -294.99339294 33.23323059 C-295.78984726 32.43691727 -296.58630157 31.64060394 -297.40689087 30.82015991 C-298.1048559 30.1266361 -298.80282093 29.4331123 -299.52193642 28.71857262 C-301 27 -301 27 -301 25 C-300.34 25 -299.68 25 -299 25 C-299 24.34 -299 23.68 -299 23 C-296.32591511 20.08281648 -293.47075767 17.53643098 -290.4375 15 C-288.33902458 13.23096266 -286.72877681 11.66097101 -285 9.5 C-283.26068215 7.32585268 -281.54308357 5.50359803 -279.5 3.625 C-278.9328125 3.10164063 -278.365625 2.57828125 -277.78125 2.0390625 C-276 1 -276 1 -274.14414597 1.20213223 C-271.39776747 2.22409945 -269.98030719 3.65072334 -267.91241455 5.7268219 C-266.70514961 6.92790085 -266.70514961 6.92790085 -265.47349548 8.15324402 C-264.59955643 9.0379689 -263.72561737 9.92269379 -262.82519531 10.83422852 C-261.43443535 12.22433136 -261.43443535 12.22433136 -260.01557922 13.64251709 C-257.47401182 16.1832233 -254.94180407 18.73307703 -252.41116047 21.28465772 C-249.7646412 23.94992299 -247.10963133 26.60670247 -244.45550537 29.26438904 C-239.43116108 34.29805988 -234.41451344 39.33932962 -229.40057731 44.38336557 C-223.69188372 50.12558412 -217.97467547 55.85929265 -212.25673151 61.59229767 C-200.49497868 73.38541336 -188.74397979 85.18918466 -177 97 C-173.68250748 95.89973381 -170.3810781 94.7985942 -167.125 93.52734375 C-166.44953125 93.26759766 -165.7740625 93.00785156 -165.078125 92.74023438 C-163.69139118 92.20456934 -162.30596872 91.66549714 -160.921875 91.12304688 C-144.51514498 84.8452809 -124.80338362 86.86250043 -109 93.75 C-108.26894043 94.09232666 -107.53788086 94.43465332 -106.78466797 94.78735352 C-103.0199213 96.68883632 -103.0199213 96.68883632 -99.0241642 96.31954384 C-96.69610953 94.80189513 -94.88592757 93.12551662 -92.9258728 91.15292358 C-92.12391983 90.35082962 -91.32196686 89.54873566 -90.49571228 88.72233582 C-89.62491531 87.84120621 -88.75411835 86.9600766 -87.85693359 86.05224609 C-86.43872359 84.6295533 -85.02051334 83.20686076 -83.60229325 81.78417802 C-82.08115786 80.256306 -80.56253434 78.72597682 -79.04459763 77.19492722 C-75.88194149 74.00522616 -72.71167063 70.82316783 -69.54019165 67.64224243 C-62.81253052 60.89238809 -56.09335515 54.13411502 -49.375 47.375 C-42.11541238 40.07140178 -34.85440477 32.76925058 -27.58362639 25.47679007 C-24.42853139 22.31170646 -21.27838227 19.14180408 -18.13187766 15.96818137 C-16.64761622 14.47262291 -15.16110784 12.97934322 -13.67353821 11.48707581 C-11.85628179 9.66405338 -10.04265553 7.83740279 -8.23323059 6.00660706 C-7.43691727 5.21015274 -6.64060394 4.41369843 -5.82015991 3.59310913 C-5.1266361 2.8951441 -4.4331123 2.19717907 -3.71857262 1.47806358 C-2 0 -2 0 0 0 Z " fill="#FDFDFD" transform="translate(778,477)"/>
<path d="M0 0 C3 1 3 1 4 3 C3.46890625 3.23074219 2.9378125 3.46148437 2.390625 3.69921875 C-2.2830176 5.85694061 -4.92958726 7.76494794 -8 12 C-9.66270287 13.33827304 -11.32916181 14.67189785 -13 16 C-13.495 16.66 -13.99 17.32 -14.5 18 C-16.35218242 20.46957656 -18.59512289 22.07609831 -21 24 C-21.45375 24.61875 -21.9075 25.2375 -22.375 25.875 C-23.96856307 27.95889016 -25.52994348 29.29888227 -27.5625 30.9375 C-30.47420163 33.35163236 -32.00759302 35.25090695 -33 39 C-33.99 39 -34.98 39 -36 39 C-37.36639342 40.6396721 -38.6949419 42.31110128 -40 44 C-40.804375 44.639375 -41.60875 45.27875 -42.4375 45.9375 C-44.87757599 47.9014636 -46.66974339 49.99232034 -48.6171875 52.4296875 C-50.12618202 54.14329144 -51.74106791 55.5456449 -53.5 57 C-55.82295852 58.92244843 -57.53990433 60.6478852 -59.5 63 C-61.95220146 65.94264175 -64.5032278 68.1966368 -67.4375 70.625 C-69.26361164 72.23197824 -70.56510146 74.04332017 -72 76 C-73.66666667 77.33333333 -75.33333333 78.66666667 -77 80 C-77.495 80.66 -77.99 81.32 -78.5 82 C-80.35218242 84.46957656 -82.59512289 86.07609831 -85 88 C-85.474375 88.639375 -85.94875 89.27875 -86.4375 89.9375 C-87.91300244 91.88516322 -89.29116305 93.11413342 -91.1875 94.625 C-92.5796875 95.800625 -92.5796875 95.800625 -94 97 C-94 97.66 -94 98.32 -94 99 C-95.98 99.495 -95.98 99.495 -98 100 C-96.54190191 96.64516562 -94.69713436 94.44988336 -92.11495972 91.87445068 C-91.3044516 91.06119324 -90.49394348 90.24793579 -89.65887451 89.41003418 C-88.76839417 88.52674438 -87.87791382 87.64345459 -86.96044922 86.73339844 C-86.0139238 85.78743735 -85.06783893 84.84103527 -84.12216187 83.89422607 C-81.55657326 81.32806382 -78.98486641 78.76811335 -76.41201925 76.20923138 C-73.72318166 73.53289903 -71.04000938 70.8508992 -68.35623169 68.16949463 C-63.27456387 63.09404217 -58.18781945 58.02370937 -53.09923279 52.95519471 C-47.30575182 47.18407095 -41.51795103 41.40726493 -35.7306211 35.62997389 C-23.82672435 23.74698043 -11.91571235 11.87114554 0 0 Z " fill="#1B1B1B" transform="translate(803,503)"/>
<path d="M0 0 C4.3487151 0.50265061 6.27957307 1.78767924 9.33129883 4.87719727 C10.151772 5.69797256 10.97224518 6.51874786 11.81758118 7.36439514 C12.6885997 8.25605881 13.55961823 9.14772247 14.45703125 10.06640625 C15.81147591 11.42934059 15.81147591 11.42934059 17.19328308 12.81980896 C19.58760948 15.22936925 21.96967775 17.65069986 24.34936523 20.07470703 C26.78224089 22.54858392 29.22655467 25.01110191 31.66992188 27.47460938 C36.45721775 32.30601417 41.23291458 37.1486572 46 42 C45.01 42.99 44.02 43.98 43 45 C41.79557292 43.47005208 40.59114583 41.94010417 39.38671875 40.41015625 C37.94316909 38.72844923 37.94316909 38.72844923 35 38 C33.3125 34.9375 33.3125 34.9375 32 32 C31.01 32 30.02 32 29 32 C27.54388513 30.01116017 26.45444606 27.91590042 25.28125 25.75 C24.64703125 24.88375 24.64703125 24.88375 24 24 C23.01 24 22.02 24 21 24 C19.61328125 22.25 19.61328125 22.25 18.3125 20 C17.87550781 19.2575 17.43851563 18.515 16.98828125 17.75 C16.49908203 16.88375 16.49908203 16.88375 16 16 C15.34 16.33 14.68 16.66 14 17 C11.03134491 14.45543849 9.6380249 11.51005335 8 8 C7.01 8 6.02 8 5 8 C4.67 7.34 4.34 6.68 4 6 C3.319375 5.154375 2.63875 4.30875 1.9375 3.4375 C0 1 0 1 0 0 Z " fill="#121212" transform="translate(683,713)"/>
<path d="M0 0 C0.66 0.33 1.32 0.66 2 1 C1.52949219 1.50789062 1.05898438 2.01578125 0.57421875 2.5390625 C-4.63494041 8.2982571 -7.69155952 13.54196152 -10 21 C-10.495 20.01 -10.495 20.01 -11 19 C-12.65 19.99 -14.3 20.98 -16 22 C-16 21.34 -16 20.68 -16 20 C-16.928125 20.928125 -16.928125 20.928125 -17.875 21.875 C-20.01813418 24.01813418 -22.03238786 26.02491374 -24.4375 27.875 C-26.98783563 29.82211081 -26.98783563 29.82211081 -28.5 32 C-30.35006691 34.46675588 -32.588596 36.09626 -35 38 C-35.33 38.66 -35.66 39.32 -36 40 C-35.34 40 -34.68 40 -34 40 C-34 41.65 -34 43.3 -34 45 C-34.33 44.34 -34.66 43.68 -35 43 C-35.763125 43.495 -36.52625 43.99 -37.3125 44.5 C-40 46 -40 46 -43 46 C-43.474375 46.639375 -43.94875 47.27875 -44.4375 47.9375 C-46.26503314 50.34984374 -47.1324773 50.44062699 -50 51 C-44.93499762 44.8758184 -39.4217079 39.29284139 -33.7890625 33.69140625 C-32.81092733 32.71514014 -31.83301565 31.73865006 -30.85531616 30.76194763 C-28.30285601 28.21327423 -25.74740552 25.66762042 -23.19128418 23.12261963 C-20.57490086 20.51653382 -17.96140697 17.90755379 -15.34765625 15.29882812 C-10.23456754 10.19640882 -5.11831088 5.09718143 0 0 Z " fill="#1B1B1B" transform="translate(601,705)"/>
<path d="M0 0 C7.11905227 5.80683219 13.47374812 12.36285444 19.9375 18.875 C21.10979204 20.05231638 22.28231614 21.22940174 23.45507812 22.40625 C26.30606982 25.26817489 29.15389615 28.13321457 32 31 C31.01 32.32 30.02 33.64 29 35 C28.01 33.02 27.02 31.04 26 29 C25.01 29 24.02 29 23 29 C21.54388513 27.01116017 20.45444606 24.91590042 19.28125 22.75 C18.64703125 21.88375 18.64703125 21.88375 18 21 C17.01 21 16.02 21 15 21 C13.54388513 19.01116017 12.45444606 16.91590042 11.28125 14.75 C10.8584375 14.1725 10.435625 13.595 10 13 C9.01 13 8.02 13 7 13 C5.4296875 11.171875 5.4296875 11.171875 3.875 8.75 C3.35679687 7.96109375 2.83859375 7.1721875 2.3046875 6.359375 C1.09564516 4.1729631 0.54449708 2.41052735 0 0 Z M-1 4 C-0.34 4 0.32 4 1 4 C0.67 4.66 0.34 5.32 0 6 C-0.33 5.34 -0.66 4.68 -1 4 Z " fill="#101010" transform="translate(729,756)"/>
<path d="M0 0 C6.74080425 5.52650334 12.8071129 11.69449559 18.9375 17.875 C20.01343727 18.95596274 21.08960731 20.03669383 22.16601562 21.1171875 C24.78003292 23.74212641 27.39088596 26.37018628 30 29 C29.34 29.99 28.68 30.98 28 32 C27.566875 31.34 27.13375 30.68 26.6875 30 C26.130625 29.34 25.57375 28.68 25 28 C24.01 28 23.02 28 22 28 C20.54388513 26.01116017 19.45444606 23.91590042 18.28125 21.75 C17.64703125 20.88375 17.64703125 20.88375 17 20 C16.01 20 15.02 20 14 20 C12.54388513 18.01116017 11.45444606 15.91590042 10.28125 13.75 C9.8584375 13.1725 9.435625 12.595 9 12 C8.01 12 7.02 12 6 12 C4.71875 10.50390625 4.71875 10.50390625 3.5 8.5625 C1.53380379 5.40503705 1.53380379 5.40503705 -2 4 C-1.34 2.68 -0.68 1.36 0 0 Z " fill="#0F0F0F" transform="translate(482,509)"/>
<path d="M0 0 C2.83578683 1.07564328 3.86797063 1.77612411 5.4375 4.4375 C6.82403723 7.15751086 6.82403723 7.15751086 9.5 8.5 C12.47011494 10.28206897 13.24206897 12.07011494 15 15 C15.825 15.495 16.65 15.99 17.5 16.5 C20.45853697 18.27512218 21.32862472 20.03710746 23 23 C23.99 23.66 24.98 24.32 26 25 C24.02 25.99 24.02 25.99 22 27 C14.08 19.08 6.16 11.16 -2 3 C-1.34 2.01 -0.68 1.02 0 0 Z " fill="#101010" transform="translate(733,702)"/>
<path d="M0 0 C1.485 0.99 1.485 0.99 3 2 C4.61594773 2.32045065 6.24311717 2.58681408 7.875 2.8125 C12.84044934 3.71992861 14.98200103 4.97600137 18 9 C18 9.66 18 10.32 18 11 C19.65071396 12.02611949 21.31970006 13.02308143 23 14 C24.8125 15.5625 24.8125 15.5625 26 17 C26 17.66 26 18.32 26 19 C26.33 19.99 26.66 20.98 27 22 C24 22 24 22 22.16235352 20.42358398 C21.49131592 19.70501221 20.82027832 18.98644043 20.12890625 18.24609375 C19.38962891 17.47458984 18.65035156 16.70308594 17.88867188 15.90820312 C16.33777196 14.26094167 14.79088839 12.60988957 13.24804688 10.95507812 C12.13719727 9.79975586 12.13719727 9.79975586 11.00390625 8.62109375 C10.33174072 7.9036499 9.6595752 7.18620605 8.96704102 6.44702148 C7.12828967 4.76649227 7.12828967 4.76649227 4.93725586 5.14868164 C2.74329623 6.04613051 2.74329623 6.04613051 0 8 C-0.33 7.67 -0.66 7.34 -1 7 C-0.71269945 4.66055264 -0.38063221 2.3260857 0 0 Z " fill="#111111" transform="translate(498,474)"/>
<path d="M0 0 C2.86697492 1.28519565 4.97607712 2.57129254 7 5 C7 5.66 7 6.32 7 7 C8.65071396 8.02611949 10.31970006 9.02308143 12 10 C13.8125 11.5625 13.8125 11.5625 15 13 C15 13.66 15 14.32 15 15 C17.22562513 17.81131596 19.66272214 18.82744291 23 20 C23 20.99 23 21.98 23 23 C23.33 23.99 23.66 24.98 24 26 C21 26 21 26 18.5480957 23.88867188 C17.58292799 22.92302899 16.62598217 21.94912397 15.67578125 20.96875 C15.16951706 20.45824097 14.66325287 19.94773193 14.14164734 19.42175293 C12.52476595 17.78806593 10.91861874 16.14426256 9.3125 14.5 C8.21878969 13.3912453 7.12439674 12.28316353 6.02929688 11.17578125 C3.34487842 8.45826861 0.6700419 5.73163639 -2 3 C-1.34 2.01 -0.68 1.02 0 0 Z " fill="#101010" transform="translate(781,750)"/>
<path d="M0 0 C0.99 0.33 1.98 0.66 3 1 C2.01 2.485 2.01 2.485 1 4 C0.29835358 5.98799818 -0.37372872 7.98698517 -1 10 C-2.1446875 10.0309375 -2.1446875 10.0309375 -3.3125 10.0625 C-4.199375 10.371875 -5.08625 10.68125 -6 11 C-6.495 12.155 -6.99 13.31 -7.5 14.5 C-7.995 15.655 -8.49 16.81 -9 18 C-11.6875 18.9375 -11.6875 18.9375 -14 19 C-14.66 20.98 -15.32 22.96 -16 25 C-16.33 24.34 -16.66 23.68 -17 23 C-18.65 23.99 -20.3 24.98 -22 26 C-22.33 25.01 -22.66 24.02 -23 23 C-20.29246463 20.21041811 -17.55924765 17.60231139 -14.5625 15.125 C-11.50638635 12.54619694 -8.96567225 9.7568616 -6.421875 6.6796875 C-4.413167 4.30676321 -2.22999835 2.16441016 0 0 Z " fill="#060606" transform="translate(799,509)"/>
<path d="M0 0 C5.99500997 4.96194855 11.46427037 10.3476624 16.9375 15.875 C17.81212891 16.75414062 18.68675781 17.63328125 19.58789062 18.5390625 C21.72757048 20.6904346 23.86486597 22.84411792 26 25 C24.125 26.0625 24.125 26.0625 22 27 C20 26 20 26 18.625 23.5625 C17.27114352 20.90892076 17.27114352 20.90892076 15.0625 20.125 C11.73911353 18.31224374 10.71841817 15.31409218 9 12 C8.01 12.495 8.01 12.495 7 13 C3.70759125 10.20145256 1.96437054 6.79326725 0 3 C0 2.01 0 1.02 0 0 Z " fill="#151515" transform="translate(522,549)"/>
<path d="M0 0 C0 3 0 3 -2.3125 5.4375 C-3.199375 6.283125 -4.08625 7.12875 -5 8 C-6.02813611 9.31175986 -7.04084432 10.6369893 -8 12 C-7.67 12.66 -7.34 13.32 -7 14 C-7.27942455 15.67654729 -7.60828247 17.34608154 -8 19 C-8.33 18.34 -8.66 17.68 -9 17 C-9.99 17 -10.98 17 -12 17 C-12.66 17.99 -13.32 18.98 -14 20 C-14.99 20 -15.98 20 -17 20 C-17.33 20.66 -17.66 21.32 -18 22 C-17.34 22 -16.68 22 -16 22 C-16 23.65 -16 25.3 -16 27 C-16.33 26.34 -16.66 25.68 -17 25 C-17.99 25 -18.98 25 -20 25 C-20.66 25.99 -21.32 26.98 -22 28 C-22.80834961 25.8449707 -22.80834961 25.8449707 -23 23 C-21.41445161 20.87385769 -19.97496243 19.27273833 -18.06640625 17.48046875 C-17.55448227 16.97703445 -17.04255829 16.47360016 -16.51512146 15.95491028 C-14.87778953 14.35114946 -13.22084525 12.76949462 -11.5625 11.1875 C-10.44851231 10.10360697 -9.33586411 9.01833543 -8.22460938 7.93164062 C-5.49835467 5.27151875 -2.75432238 2.63103698 0 0 Z " fill="#151515" transform="translate(527,779)"/>
<path d="M0 0 C1.66611905 -0.042721 3.33382885 -0.04063832 5 0 C5.33 0.33 5.66 0.66 6 1 C6.78375 1.144375 7.5675 1.28875 8.375 1.4375 C11 2 11 2 14 4 C14.391875 3.525625 14.78375 3.05125 15.1875 2.5625 C17.40808374 0.64820367 19.13375709 0.38733012 22 0 C20.625 2 20.625 2 19 4 C18.34 4 17.68 4 17 4 C16.67 4.99 16.34 5.98 16 7 C14.1875 8.75 14.1875 8.75 12 10 C8.16266081 9.64750955 6.35293127 7.69933613 3.75 5 C3.04359375 4.278125 2.3371875 3.55625 1.609375 2.8125 C0 1 0 1 0 0 Z " fill="#EBEBEB" transform="translate(766,792)"/>
<path d="M0 0 C1.32 0.33 2.64 0.66 4 1 C3.401875 1.226875 2.80375 1.45375 2.1875 1.6875 C-0.18844156 2.876424 -0.18844156 2.876424 -1.4375 5.4375 C-3.26632208 8.43676821 -5.03067791 9.21840674 -8 11 C-8.495 11.825 -8.99 12.65 -9.5 13.5 C-11.28206897 16.47011494 -13.07011494 17.24206897 -16 19 C-18.38663899 22.23901005 -19.43289338 25.03025365 -20 29 C-20.33 28.34 -20.66 27.68 -21 27 C-22.65 27.99 -24.3 28.98 -26 30 C-26.33 29.01 -26.66 28.02 -27 27 C-22.48746518 22.2367688 -22.48746518 22.2367688 -19.8125 20.9375 C-17.47139069 19.72658139 -16.95928874 18.39822186 -16 16 C-15.34 16 -14.68 16 -14 16 C-13.34 14.68 -12.68 13.36 -12 12 C-11.34 12 -10.68 12 -10 12 C-9.34 10.68 -8.68 9.36 -8 8 C-7.34 8 -6.68 8 -6 8 C-5.34 6.68 -4.68 5.36 -4 4 C-3.34 4 -2.68 4 -2 4 C-1.34 2.68 -0.68 1.36 0 0 Z " fill="#070707" transform="translate(755,553)"/>
<path d="M0 0 C0.66 0 1.32 0 2 0 C3.27400375 1.47000433 4.5435008 2.94515781 5.7578125 4.46484375 C7.07336124 6.09066342 8.48213245 7.56202021 10 9 C8.68 9.33 7.36 9.66 6 10 C5.34 9.01 4.68 8.02 4 7 C3.319375 7.515625 2.63875 8.03125 1.9375 8.5625 C-1.80118832 10.39207088 -4.00443413 9.86178872 -8 9 C-7.04270084 7.87411986 -6.08412105 6.7493285 -5.125 5.625 C-4.59132813 4.99851562 -4.05765625 4.37203125 -3.5078125 3.7265625 C-2.38567993 2.44163349 -1.20628025 1.20628025 0 0 Z " fill="#F0F0F0" transform="translate(776,477)"/>
<path d="M0 0 C1.13199353 0.9080162 2.25532363 1.82683826 3.375 2.75 C4.00148438 3.26046875 4.62796875 3.7709375 5.2734375 4.296875 C7.08312318 6.08199481 8.00117455 7.67949644 9 10 C8.4225 10.103125 7.845 10.20625 7.25 10.3125 C4.67950842 11.09792798 3.06342716 12.30504197 1 14 C0.01 13.01 -0.98 12.02 -2 11 C-1.649375 10.0925 -1.29875 9.185 -0.9375 8.25 C-0.01484777 5.05147227 0.0074052 4.02221559 -1 1 C-0.67 0.67 -0.34 0.34 0 0 Z " fill="#F2F2F2" transform="translate(794,768)"/>
<path d="M0 0 C0 1.65 0 3.3 0 5 C-0.928125 5.185625 -1.85625 5.37125 -2.8125 5.5625 C-6.23787197 7.10727559 -6.5205979 7.38621238 -7.875 10.625 C-8.24625 11.73875 -8.6175 12.8525 -9 14 C-10.65 14 -12.3 14 -14 14 C-14.33 13.01 -14.66 12.02 -15 11 C-12.2118412 8.12735154 -9.36021599 5.35581408 -6.375 2.6875 C-5.80523438 2.17574219 -5.23546875 1.66398438 -4.6484375 1.13671875 C-3 0 -3 0 0 0 Z " fill="#060606" transform="translate(727,585)"/>
<path d="M0 0 C0.33 0.66 0.66 1.32 1 2 C1.99 2.33 2.98 2.66 4 3 C-0.29 7.29 -4.58 11.58 -9 16 C-10.32 15.01 -11.64 14.02 -13 13 C-12.01 12.01 -11.02 11.02 -10 10 C-9.67 10.33 -9.34 10.66 -9 11 C-8.608125 10.236875 -8.21625 9.47375 -7.8125 8.6875 C-5.81793663 5.73004398 -4.0375347 4.75857272 -1 3 C-0.67 2.01 -0.34 1.02 0 0 Z " fill="#121212" transform="translate(542,705)"/>
<path d="M0 0 C0.99 0.99 1.98 1.98 3 3 C-1.11619836 7.91935902 -5.40410362 12.52647956 -10 17 C-10.99 16.34 -11.98 15.68 -13 15 C-9.25 9.125 -9.25 9.125 -7 8 C-3.60811414 5.81168654 -1.91329473 3.53959524 0 0 Z " fill="#111111" transform="translate(560,687)"/>
<path d="M0 0 C0.66 0.33 1.32 0.66 2 1 C1.52949219 1.50789062 1.05898438 2.01578125 0.57421875 2.5390625 C-4.63494041 8.2982571 -7.69155952 13.54196152 -10 21 C-10.33 20.34 -10.66 19.68 -11 19 C-12.65 19.99 -14.3 20.98 -16 22 C-16.33 21.01 -16.66 20.02 -17 19 C-16.29875 18.34 -15.5975 17.68 -14.875 17 C-12.69434003 14.83162544 -10.87084936 12.54838395 -9.0625 10.0625 C-6.33422694 6.3279548 -3.34681647 3.18744426 0 0 Z " fill="#0E0E0E" transform="translate(601,705)"/>
<path d="M0 0 C0.99 0.66 1.98 1.32 3 2 C3 2.66 3 3.32 3 4 C4.65071396 5.02611949 6.31970006 6.02308143 8 7 C9.8125 8.5625 9.8125 8.5625 11 10 C11 10.66 11 11.32 11 12 C11.33 12.99 11.66 13.98 12 15 C9 15 9 15 6.08203125 12.375 C4.98449244 11.25750594 3.89492105 10.13214357 2.8125 9 C2.25369141 8.42765625 1.69488281 7.8553125 1.11914062 7.265625 C-0.26073093 5.85037212 -1.63126734 4.42602845 -3 3 C-2.01 2.67 -1.02 2.34 0 2 C0 1.34 0 0.68 0 0 Z " fill="#111111" transform="translate(713,681)"/>
<path d="M0 0 C3 0 3 0 7 1 C2.71 5.29 -1.58 9.58 -6 14 C-7.32 13.01 -8.64 12.02 -10 11 C-9.01 10.01 -8.02 9.02 -7 8 C-6.67 8.33 -6.34 8.66 -6 9 C-5.34 8.01 -4.68 7.02 -4 6 C-3.34 6 -2.68 6 -2 6 C-1.855625 5.195625 -1.71125 4.39125 -1.5625 3.5625 C-1 1 -1 1 0 0 Z " fill="#121212" transform="translate(699,547)"/>
<path d="M0 0 C1.32 0.66 2.64 1.32 4 2 C-0.29 6.29 -4.58 10.58 -9 15 C-10.32 14.01 -11.64 13.02 -13 12 C-12.01 11.01 -11.02 10.02 -10 9 C-9.67 9.33 -9.34 9.66 -9 10 C-8.34 9.01 -7.68 8.02 -7 7 C-5.00334402 5.32932867 -3.00348966 3.66247014 -1 2 C-0.67 1.34 -0.34 0.68 0 0 Z " fill="#131313" transform="translate(766,482)"/>
<path d="M0 0 C0.33 0.99 0.66 1.98 1 3 C-0.66666667 4.66666667 -2.33333333 6.33333333 -4 8 C-3.67 8.66 -3.34 9.32 -3 10 C-3.33 10.66 -3.66 11.32 -4 12 C-5.32 12 -6.64 12 -8 12 C-8.66 12.66 -9.32 13.32 -10 14 C-12.625 14.625 -12.625 14.625 -15 15 C-14.29875 14.319375 -13.5975 13.63875 -12.875 12.9375 C-10.76854929 10.84298385 -8.84033096 8.65549207 -6.9375 6.375 C-4.82297178 3.86707118 -2.76716181 1.8092981 0 0 Z " fill="#E6E6E6" transform="translate(499,481)"/>
<path d="M0 0 C0.66 0.33 1.32 0.66 2 1 C1.0919838 2.13199353 0.17316174 3.25532363 -0.75 4.375 C-1.26046875 5.00148438 -1.7709375 5.62796875 -2.296875 6.2734375 C-4 8 -4 8 -6.140625 9.0390625 C-8.35790369 9.91104318 -8.35790369 9.91104318 -9 13 C-10.62890625 14.60546875 -10.62890625 14.60546875 -12.5625 16.1875 C-13.20316406 16.71730469 -13.84382813 17.24710937 -14.50390625 17.79296875 C-14.99761719 18.19128906 -15.49132812 18.58960938 -16 19 C-16.99 18.34 -17.98 17.68 -19 17 C-12.68886804 11.30812316 -6.35963333 5.63764597 0 0 Z " fill="#E1E1E1" transform="translate(392,338)"/>
<path d="M0 0 C5.73723155 1.25939229 9.6503507 4.24104703 13 9 C12.9375 11.9375 12.9375 11.9375 12 14 C10.49440461 12.03617993 9.10868317 10.21736634 8 8 C7.01 8 6.02 8 5 8 C3.61328125 6.25 3.61328125 6.25 2.3125 4 C1.87550781 3.2575 1.43851563 2.515 0.98828125 1.75 C0.66214844 1.1725 0.33601562 0.595 0 0 Z " fill="#111111" transform="translate(547,577)"/>
<path d="M0 0 C0 3 0 3 -1 6 C-3.31847874 6.7166207 -5.65319703 7.38242027 -8 8 C-9.16685266 9.16685266 -10.32023562 10.3480822 -11.4375 11.5625 C-13 13 -13 13 -16 14 C-16.66 13.34 -17.32 12.68 -18 12 C-12.06 8.04 -6.12 4.08 0 0 Z " fill="#151515" transform="translate(862,960)"/>
<path d="M0 0 C0.99 0.495 0.99 0.495 2 1 C1.01 1.495 1.01 1.495 0 2 C0 1.34 0 0.68 0 0 Z M-13 1 C-11.88625 2.0209375 -11.88625 2.0209375 -10.75 3.0625 C-8.27811238 5.23226473 -8.27811238 5.23226473 -5.9375 4.875 C-3.92675372 3.96692103 -1.94511927 3.04202818 0 2 C-0.1875 3.8125 -0.1875 3.8125 -1 6 C-3.375 7.625 -3.375 7.625 -6 9 C-6.99 9.66 -7.98 10.32 -9 11 C-13 4.375 -13 4.375 -13 1 Z M-15 4 C-14.34 4 -13.68 4 -13 4 C-13.33 4.66 -13.66 5.32 -14 6 C-14.33 5.34 -14.66 4.68 -15 4 Z " fill="#131313" transform="translate(783,796)"/>
<path d="M0 0 C2.46800047 1.15173355 4.04783565 2.04783565 6 4 C5.67 4.33 5.34 4.66 5 5 C6.32 5.99 7.64 6.98 9 8 C8.67 9.32 8.34 10.64 8 12 C0.51708428 5.84965831 0.51708428 5.84965831 -2 2 C-1.34 1.34 -0.68 0.68 0 0 Z " fill="#101010" transform="translate(526,495)"/>
<path d="M0 0 C2.88437779 1.29299694 4.87219421 2.65941363 7 5 C6.67 5.33 6.34 5.66 6 6 C6.66 6.66 7.32 7.32 8 8 C7.67 8.99 7.34 9.98 7 11 C5.87105124 10.06725891 4.74699124 9.12859878 3.625 8.1875 C2.99851562 7.66542969 2.37203125 7.14335938 1.7265625 6.60546875 C0 5 0 5 -2 2 C-1.34 1.34 -0.68 0.68 0 0 Z " fill="#111111" transform="translate(589,558)"/>
<path d="M0 0 C0.144375 0.61875 0.28875 1.2375 0.4375 1.875 C0.93152225 4.03258322 0.93152225 4.03258322 2 6 C1.01 7.485 1.01 7.485 0 9 C-0.66 8.01 -1.32 7.02 -2 6 C-2.66 7.98 -3.32 9.96 -4 12 C-5.32 11.34 -6.64 10.68 -8 10 C-6.34908222 5.70761377 -3.26245434 3.1206085 0 0 Z " fill="#ECECEC" transform="translate(485,768)"/>
<path d="M0 0 C1.32 0 2.64 0 4 0 C5.1875 3.25 5.1875 3.25 6 7 C4.625 9.4375 4.625 9.4375 3 11 C0.9375 8.875 0.9375 8.875 -1 6 C-0.75 2.6875 -0.75 2.6875 0 0 Z " fill="#101010" transform="translate(953,801)"/>
<path d="M0 0 C0 1.65 0 3.3 0 5 C-0.33 4.34 -0.66 3.68 -1 3 C-1.763125 3.495 -2.52625 3.99 -3.3125 4.5 C-6 6 -6 6 -9 6 C-9.474375 6.639375 -9.94875 7.27875 -10.4375 7.9375 C-12.26503314 10.34984374 -13.1324773 10.44062699 -16 11 C-11.86730261 5.6108415 -7.32925945 0 0 0 Z " fill="#070707" transform="translate(567,745)"/>
<path d="M0 0 C0.66 0.33 1.32 0.66 2 1 C1.360625 1.886875 0.72125 2.77375 0.0625 3.6875 C-1.80829757 6.69211428 -2.59423966 8.5510371 -3 12 C-3.33 11.34 -3.66 10.68 -4 10 C-4.99 10 -5.98 10 -7 10 C-7.66 10.99 -8.32 11.98 -9 13 C-9.33 12.01 -9.66 11.02 -10 10 C-8.625 8.5 -8.625 8.5 -7 7 C-6.34 7 -5.68 7 -5 7 C-4.731875 6.401875 -4.46375 5.80375 -4.1875 5.1875 C-3.01506533 3.02775192 -1.80630718 1.64209744 0 0 Z " fill="#080808" transform="translate(530,778)"/>
<path d="M0 0 C0.66 0.33 1.32 0.66 2 1 C1.01 2.32 0.02 3.64 -1 5 C-0.67 5.66 -0.34 6.32 0 7 C-3.3171411 8.4216319 -6.44219804 9.39009109 -10 10 C-8.78934835 6.36804504 -7.46308874 5.57103808 -4.4375 3.3125 C-3.61121094 2.68988281 -2.78492188 2.06726563 -1.93359375 1.42578125 C-1.29550781 0.95527344 -0.65742187 0.48476563 0 0 Z " fill="#121212" transform="translate(886,942)"/>
<path d="M0 0 C1.65 0.33 3.3 0.66 5 1 C4.06725891 2.12894876 3.12859878 3.25300876 2.1875 4.375 C1.66542969 5.00148438 1.14335938 5.62796875 0.60546875 6.2734375 C-1 8 -1 8 -4 10 C-4.99 9.01 -5.98 8.02 -7 7 C-6.030625 6.401875 -5.06125 5.80375 -4.0625 5.1875 C-0.76947958 3.28872491 -0.76947958 3.28872491 0 0 Z " fill="#161616" transform="translate(526,721)"/>
<path d="M0 0 C0.556875 0.268125 1.11375 0.53625 1.6875 0.8125 C-0.81075283 4.02453935 -3.3827992 6.98743137 -6.3125 9.8125 C-6.9725 9.4825 -7.6325 9.1525 -8.3125 8.8125 C-7.82204356 4.398392 -4.79279276 -0.38860482 0 0 Z " fill="#070707" transform="translate(541.3125,769.1875)"/>
<path d="M0 0 C0.99 0.33 1.98 0.66 3 1 C2.01 1.495 2.01 1.495 1 2 C1 3.98 1 5.96 1 8 C-1 8 -3 8 -5 8 C-5.66 8.66 -6.32 9.32 -7 10 C-7.66 9.34 -8.32 8.68 -9 8 C-8.43410156 7.50628906 -7.86820313 7.01257813 -7.28515625 6.50390625 C-6.55167969 5.86324219 -5.81820312 5.22257813 -5.0625 4.5625 C-4.33160156 3.92441406 -3.60070312 3.28632812 -2.84765625 2.62890625 C-1.87860647 1.77458541 -0.91348825 0.91348825 0 0 Z " fill="#E4E4E4" transform="translate(887,901)"/>
<path d="M0 0 C0.33 0.66 0.66 1.32 1 2 C0.01 2.66 -0.98 3.32 -2 4 C-2.33 4.99 -2.66 5.98 -3 7 C-5.31 6.67 -7.62 6.34 -10 6 C-10.33 6.66 -10.66 7.32 -11 8 C-11.99 7.34 -12.98 6.68 -14 6 C-9.38 4.02 -4.76 2.04 0 0 Z " fill="#E3E3E3" transform="translate(794,965)"/>
<path d="M0 0 C2.6875 -0.3125 2.6875 -0.3125 6 0 C8.875 2.5 8.875 2.5 11 5 C8.39189261 5.9659657 7.10579853 6.02770914 4.375 5.3125 C1.69915265 3.83374226 1.03491649 2.82249951 0 0 Z " fill="#0F0F0F" transform="translate(392,945)"/>
<path d="M0 0 C0.66 1.32 1.32 2.64 2 4 C0.02 6.97 0.02 6.97 -2 10 C-4 8.625 -4 8.625 -6 7 C-6 6.34 -6 5.68 -6 5 C-5.34 5 -4.68 5 -4 5 C-4 4.34 -4 3.68 -4 3 C-2 1.375 -2 1.375 0 0 Z " fill="#EBEBEB" transform="translate(483,497)"/>
<path d="M0 0 C0.99 0.99 1.98 1.98 3 3 C3 3.99 3 4.98 3 6 C2.21625 6.268125 1.4325 6.53625 0.625 6.8125 C-2.28114923 7.84814432 -2.28114923 7.84814432 -4 11 C-4.99 10.67 -5.98 10.34 -7 10 C-3.535 5.05 -3.535 5.05 0 0 Z " fill="#181818" transform="translate(345,433)"/>
<path d="M0 0 C1.485 0.99 1.485 0.99 3 2 C4.9896995 2.39013716 6.99019869 2.73202649 9 3 C8.67 3.99 8.34 4.98 8 6 C7.4225 5.773125 6.845 5.54625 6.25 5.3125 C3.87827523 4.73494807 3.87827523 4.73494807 1.75 6.4375 C0.88375 7.2109375 0.88375 7.2109375 0 8 C-0.33 7.67 -0.66 7.34 -1 7 C-0.71269945 4.66055264 -0.38063221 2.3260857 0 0 Z " fill="#232323" transform="translate(498,474)"/>
<path d="M0 0 C0.99 0.66 1.98 1.32 3 2 C3 2.66 3 3.32 3 4 C3.99 4.66 4.98 5.32 6 6 C5.67 7.32 5.34 8.64 5 10 C3.85073734 9.04578192 2.70569459 8.08647955 1.5625 7.125 C0.92441406 6.59132813 0.28632812 6.05765625 -0.37109375 5.5078125 C-2 4 -2 4 -3 2 C-2.01 2 -1.02 2 0 2 C0 1.34 0 0.68 0 0 Z " fill="#141414" transform="translate(569,537)"/>
<path d="M0 0 C2.31 0.66 4.62 1.32 7 2 C7 2.99 7 3.98 7 5 C7.33 5.33 7.66 5.66 8 6 C7.01 6.66 6.02 7.32 5 8 C4.731875 7.360625 4.46375 6.72125 4.1875 6.0625 C3.11332248 3.66868314 3.11332248 3.66868314 0 3 C0 2.01 0 1.02 0 0 Z " fill="#E4E4E4" transform="translate(887,376)"/>
<path d="M0 0 C2.5 1.375 2.5 1.375 5 3 C5 3.66 5 4.32 5 5 C5.66 5.33 6.32 5.66 7 6 C5.35 6.66 3.7 7.32 2 8 C0.4375 6.25 0.4375 6.25 -1 4 C-0.6875 1.75 -0.6875 1.75 0 0 Z " fill="#F6F6F6" transform="translate(498,792)"/>
<path d="M0 0 C0.33 0.66 0.66 1.32 1 2 C1.99 2.33 2.98 2.66 4 3 C1.69 5.31 -0.62 7.62 -3 10 C-3.66 8.68 -4.32 7.36 -5 6 C-4.360625 5.566875 -3.72125 5.13375 -3.0625 4.6875 C-0.73253997 3.08760823 -0.73253997 3.08760823 0 0 Z " fill="#151515" transform="translate(494,753)"/>
<path d="M0 0 C0.33 0.66 0.66 1.32 1 2 C1.99 2.33 2.98 2.66 4 3 C1.69 5.31 -0.62 7.62 -3 10 C-3.66 8.68 -4.32 7.36 -5 6 C-4.360625 5.566875 -3.72125 5.13375 -3.0625 4.6875 C-0.73253997 3.08760823 -0.73253997 3.08760823 0 0 Z " fill="#151515" transform="translate(502,745)"/>
<path d="M0 0 C2.375 0.25 2.375 0.25 5 1 C6.3125 3.0625 6.3125 3.0625 7 5 C5.02 5.99 5.02 5.99 3 7 C0 3.375 0 3.375 0 0 Z " fill="#EAEAEA" transform="translate(897,385)"/>
<path d="M0 0 C0.99 0.99 1.98 1.98 3 3 C0.69 6.3 -1.62 9.6 -4 13 C-4.66 12.67 -5.32 12.34 -6 12 C-6 11.34 -6 10.68 -6 10 C-5.34 10 -4.68 10 -4 10 C-3.71125 9.278125 -3.4225 8.55625 -3.125 7.8125 C-2.08333333 5.20833333 -1.04166667 2.60416667 0 0 Z " fill="#191919" transform="translate(939,834)"/>
<path d="M0 0 C4.875 2.625 4.875 2.625 6 6 C4.02 6.99 4.02 6.99 2 8 C0.4375 6.25 0.4375 6.25 -1 4 C-0.6875 1.75 -0.6875 1.75 0 0 Z " fill="#F6F6F6" transform="translate(490,784)"/>
<path d="M0 0 C4.875 3.625 4.875 3.625 6 7 C4.02 7.99 4.02 7.99 2 9 C0.4375 7.875 0.4375 7.875 -1 6 C-0.6875 2.8125 -0.6875 2.8125 0 0 Z " fill="#F6F6F6" transform="translate(482,775)"/>
<path d="M0 0 C1.32 0.66 2.64 1.32 4 2 C1.69 4.31 -0.62 6.62 -3 9 C-3.66 8.01 -4.32 7.02 -5 6 C-3.35 4.02 -1.7 2.04 0 0 Z " fill="#151515" transform="translate(518,730)"/>
<path d="M0 0 C0.66 1.32 1.32 2.64 2 4 C-0.97 6.475 -0.97 6.475 -4 9 C-4.66 8.34 -5.32 7.68 -6 7 C-2.25 1.125 -2.25 1.125 0 0 Z " fill="#131313" transform="translate(569,679)"/>
<path d="M0 0 C1.32 0.66 2.64 1.32 4 2 C1.69 4.31 -0.62 6.62 -3 9 C-3.66 8.01 -4.32 7.02 -5 6 C-3.35 4.02 -1.7 2.04 0 0 Z " fill="#161616" transform="translate(726,522)"/>
<path d="M0 0 C3 1 3 1 4 3 C3.45730469 3.25394531 2.91460938 3.50789063 2.35546875 3.76953125 C1.64003906 4.11371094 0.92460938 4.45789063 0.1875 4.8125 C-0.52019531 5.14894531 -1.22789062 5.48539062 -1.95703125 5.83203125 C-4.01129035 7.00645471 -5.41616278 8.25628016 -7 10 C-7 7 -7 7 -5.46875 5.17578125 C-4.8190625 4.56089844 -4.169375 3.94601562 -3.5 3.3125 C-2.8503125 2.68988281 -2.200625 2.06726563 -1.53125 1.42578125 C-0.77328125 0.72001953 -0.77328125 0.72001953 0 0 Z " fill="#161616" transform="translate(803,503)"/>
<path d="M0 0 C3.62613199 0.56959153 5.25517741 1.92374534 7.75 4.5625 C8.36359375 5.20316406 8.9771875 5.84382813 9.609375 6.50390625 C10.06828125 6.99761719 10.5271875 7.49132812 11 8 C10.67 8.66 10.34 9.32 10 10 C9.34 10 8.68 10 8 10 C3 4.52380952 3 4.52380952 3 2 C2.01 2 1.02 2 0 2 C0 1.34 0 0.68 0 0 Z " fill="#151515" transform="translate(876,370)"/>
<path d="M0 0 C0.66 1.32 1.32 2.64 2 4 C1.01 5.485 1.01 5.485 0 7 C-0.66 7 -1.32 7 -2 7 C-2.99 7.66 -3.98 8.32 -5 9 C-4.5206753 4.68607774 -3.2542015 2.83430453 0 0 Z " fill="#DDDDDD" transform="translate(902,886)"/>
<path d="M0 0 C2.31 1.98 4.62 3.96 7 6 C6.01 7.32 5.02 8.64 4 10 C0 3.375 0 3.375 0 0 Z " fill="#161616" transform="translate(754,781)"/>
<path d="M0 0 C1.66611905 -0.042721 3.33382885 -0.04063832 5 0 C5.33 0.33 5.66 0.66 6 1 C6.99 1.33 7.98 1.66 9 2 C8.34 3.65 7.68 5.3 7 7 C5.83040013 6.02433888 4.66438823 5.044375 3.5 4.0625 C2.8503125 3.51722656 2.200625 2.97195313 1.53125 2.41015625 C1.0259375 1.94480469 0.520625 1.47945312 0 1 C0 0.67 0 0.34 0 0 Z " fill="#EDEDED" transform="translate(750,776)"/>
<path d="M0 0 C1.66611905 -0.042721 3.33382885 -0.04063832 5 0 C5.33 0.33 5.66 0.66 6 1 C6.99 1.33 7.98 1.66 9 2 C8.34 3.65 7.68 5.3 7 7 C5.83040013 6.02433888 4.66438823 5.044375 3.5 4.0625 C2.8503125 3.51722656 2.200625 2.97195313 1.53125 2.41015625 C1.0259375 1.94480469 0.520625 1.47945312 0 1 C0 0.67 0 0.34 0 0 Z " fill="#ECECEC" transform="translate(742,768)"/>
<path d="M0 0 C1.66611905 -0.042721 3.33382885 -0.04063832 5 0 C5.33 0.33 5.66 0.66 6 1 C6.99 1.33 7.98 1.66 9 2 C8.34 3.65 7.68 5.3 7 7 C5.83040013 6.02433888 4.66438823 5.044375 3.5 4.0625 C2.8503125 3.51722656 2.200625 2.97195313 1.53125 2.41015625 C1.0259375 1.94480469 0.520625 1.47945312 0 1 C0 0.67 0 0.34 0 0 Z " fill="#ECECEC" transform="translate(734,760)"/>
<path d="M0 0 C1.66611905 -0.042721 3.33382885 -0.04063832 5 0 C5.33 0.33 5.66 0.66 6 1 C6.99 1.33 7.98 1.66 9 2 C8.34 3.65 7.68 5.3 7 7 C5.83040013 6.02433888 4.66438823 5.044375 3.5 4.0625 C2.8503125 3.51722656 2.200625 2.97195313 1.53125 2.41015625 C1.0259375 1.94480469 0.520625 1.47945312 0 1 C0 0.67 0 0.34 0 0 Z " fill="#ECECEC" transform="translate(726,752)"/>
<path d="M0 0 C1.66611905 -0.042721 3.33382885 -0.04063832 5 0 C5.33 0.33 5.66 0.66 6 1 C6.99 1.33 7.98 1.66 9 2 C8.34 3.65 7.68 5.3 7 7 C5.83040013 6.02433888 4.66438823 5.044375 3.5 4.0625 C2.8503125 3.51722656 2.200625 2.97195313 1.53125 2.41015625 C1.0259375 1.94480469 0.520625 1.47945312 0 1 C0 0.67 0 0.34 0 0 Z " fill="#ECECEC" transform="translate(718,744)"/>
<path d="M0 0 C0.99 0.33 1.98 0.66 3 1 C1.02 3.31 -0.96 5.62 -3 8 C-3.66 6.68 -4.32 5.36 -5 4 C-2.6875 1.9375 -2.6875 1.9375 0 0 Z " fill="#161616" transform="translate(510,739)"/>
<path d="M0 0 C1.66611905 -0.042721 3.33382885 -0.04063832 5 0 C5.33 0.33 5.66 0.66 6 1 C6.99 1.33 7.98 1.66 9 2 C8.34 3.65 7.68 5.3 7 7 C5.83040013 6.02433888 4.66438823 5.044375 3.5 4.0625 C2.8503125 3.51722656 2.200625 2.97195313 1.53125 2.41015625 C1.0259375 1.94480469 0.520625 1.47945312 0 1 C0 0.67 0 0.34 0 0 Z " fill="#EDEDED" transform="translate(710,736)"/>
<path d="M0 0 C1.66611905 -0.042721 3.33382885 -0.04063832 5 0 C5.33 0.33 5.66 0.66 6 1 C6.99 1.33 7.98 1.66 9 2 C8.34 3.65 7.68 5.3 7 7 C5.83040013 6.02433888 4.66438823 5.044375 3.5 4.0625 C2.8503125 3.51722656 2.200625 2.97195313 1.53125 2.41015625 C1.0259375 1.94480469 0.520625 1.47945312 0 1 C0 0.67 0 0.34 0 0 Z " fill="#ECECEC" transform="translate(702,728)"/>
<path d="M0 0 C1.32 0.99 2.64 1.98 4 3 C1.03 5.475 1.03 5.475 -2 8 C-2.66 7.34 -3.32 6.68 -4 6 C-2.68 4.02 -1.36 2.04 0 0 Z " fill="#141414" transform="translate(687,560)"/>
<path d="M0 0 C2.62113708 0 4.50935112 0.31292445 7 1 C4.03 3.475 4.03 3.475 1 6 C0.01 5.01 -0.98 4.02 -2 3 C-1.34 2.01 -0.68 1.02 0 0 Z " fill="#151515" transform="translate(707,539)"/>
<path d="M0 0 C2.62113708 0 4.50935112 0.31292445 7 1 C4.03 3.475 4.03 3.475 1 6 C0.01 5.01 -0.98 4.02 -2 3 C-1.34 2.01 -0.68 1.02 0 0 Z " fill="#141414" transform="translate(715,531)"/>
<path d="M0 0 C2.62113708 0 4.50935112 0.31292445 7 1 C4.03 3.475 4.03 3.475 1 6 C0.01 5.01 -0.98 4.02 -2 3 C-1.34 2.01 -0.68 1.02 0 0 Z " fill="#141414" transform="translate(731,515)"/>
<path d="M0 0 C2.62113708 0 4.50935112 0.31292445 7 1 C4.03 3.475 4.03 3.475 1 6 C0.01 5.01 -0.98 4.02 -2 3 C-1.34 2.01 -0.68 1.02 0 0 Z " fill="#141414" transform="translate(739,507)"/>
<path d="M0 0 C2.62113708 0 4.50935112 0.31292445 7 1 C4.03 3.475 4.03 3.475 1 6 C0.01 5.01 -0.98 4.02 -2 3 C-1.34 2.01 -0.68 1.02 0 0 Z " fill="#151515" transform="translate(747,499)"/>
<path d="M0 0 C0.66 0 1.32 0 2 0 C2.66 2.64 3.32 5.28 4 8 C0.48283697 8 -0.37121748 7.17554415 -3 5 C-2.34 4.34 -1.68 3.68 -1 3 C-0.67 2.01 -0.34 1.02 0 0 Z " fill="#121212" transform="translate(434,928)"/>
<path d="M0 0 C0.99 0.66 1.98 1.32 3 2 C3 2.66 3 3.32 3 4 C3.99 4.66 4.98 5.32 6 6 C4.02 6.99 4.02 6.99 2 8 C0.68 6.35 -0.64 4.7 -2 3 C-1.34 2.01 -0.68 1.02 0 0 Z " fill="#131313" transform="translate(561,529)"/>
<path d="M0 0 C1.32 0.66 2.64 1.32 4 2 C3.2575 2.4125 2.515 2.825 1.75 3.25 C-0.90171685 4.93745618 -2.86674014 6.70872089 -5 9 C-5.66 8.34 -6.32 7.68 -7 7 C-4.69 4.69 -2.38 2.38 0 0 Z " fill="#EBEBEB" transform="translate(767,486)"/>
<path d="M0 0 C5.02470674 2.37277818 6.56030983 5.21097855 9 10 C8.01 10 7.02 10 6 10 C4.39453125 8.3203125 4.39453125 8.3203125 2.8125 6.125 C2.01779297 5.04605469 2.01779297 5.04605469 1.20703125 3.9453125 C0 2 0 2 0 0 Z " fill="#181818" transform="translate(933,434)"/>
<path d="M0 0 C0.99 0.33 1.98 0.66 3 1 C2.67 1.33 2.34 1.66 2 2 C2.66 2.33 3.32 2.66 4 3 C3.67 3.99 3.34 4.98 3 6 C1.02 5.34 -0.96 4.68 -3 4 C-2.67 3.01 -2.34 2.02 -2 1 C-1.34 0.67 -0.68 0.34 0 0 Z " fill="#1A1A1A" transform="translate(473,954)"/>
<path d="M0 0 C0.33 0.66 0.66 1.32 1 2 C-1.31 3.32 -3.62 4.64 -6 6 C-6.33 4.35 -6.66 2.7 -7 1 C-4.53721199 -0.231394 -2.7204945 -0.07159196 0 0 Z " fill="#161616" transform="translate(852,929)"/>
<path d="M0 0 C1.32 0.66 2.64 1.32 4 2 C1.03 4.475 1.03 4.475 -2 7 C-2.66 6.01 -3.32 5.02 -4 4 C-2.68 2.68 -1.36 1.36 0 0 Z " fill="#EFEFEF" transform="translate(524,777)"/>
<path d="M0 0 C1.32 0.66 2.64 1.32 4 2 C1.03 4.475 1.03 4.475 -2 7 C-2.66 6.01 -3.32 5.02 -4 4 C-2.68 2.68 -1.36 1.36 0 0 Z " fill="#EFEFEF" transform="translate(532,769)"/>
<path d="M0 0 C0 1.65 0 3.3 0 5 C-0.33 4.34 -0.66 3.68 -1 3 C-1.78375 3.515625 -2.5675 4.03125 -3.375 4.5625 C-4.24125 5.036875 -5.1075 5.51125 -6 6 C-6.66 5.67 -7.32 5.34 -8 5 C-8 4.34 -8 3.68 -8 3 C-5.09451118 0.95830515 -3.59857954 0 0 0 Z " fill="#070707" transform="translate(559,753)"/>
<path d="M0 0 C1.32 0.66 2.64 1.32 4 2 C1.03 4.475 1.03 4.475 -2 7 C-2.66 6.01 -3.32 5.02 -4 4 C-2.68 2.68 -1.36 1.36 0 0 Z " fill="#EFEFEF" transform="translate(572,729)"/>
<path d="M0 0 C1.32 0.66 2.64 1.32 4 2 C1.03 4.475 1.03 4.475 -2 7 C-2.66 6.01 -3.32 5.02 -4 4 C-2.68 2.68 -1.36 1.36 0 0 Z " fill="#EFEFEF" transform="translate(580,721)"/>
<path d="M0 0 C1.32 0.66 2.64 1.32 4 2 C1.03 4.475 1.03 4.475 -2 7 C-2.66 6.01 -3.32 5.02 -4 4 C-2.68 2.68 -1.36 1.36 0 0 Z " fill="#EFEFEF" transform="translate(588,713)"/>
<path d="M0 0 C1.32 0.66 2.64 1.32 4 2 C1.03 4.475 1.03 4.475 -2 7 C-2.66 6.01 -3.32 5.02 -4 4 C-2.68 2.68 -1.36 1.36 0 0 Z " fill="#EFEFEF" transform="translate(716,585)"/>
<path d="M0 0 C1.32 0.66 2.64 1.32 4 2 C1.03 4.475 1.03 4.475 -2 7 C-2.66 6.01 -3.32 5.02 -4 4 C-2.68 2.68 -1.36 1.36 0 0 Z " fill="#EFEFEF" transform="translate(724,577)"/>
<path d="M0 0 C1.32 0.66 2.64 1.32 4 2 C1.03 4.475 1.03 4.475 -2 7 C-2.66 6.01 -3.32 5.02 -4 4 C-2.68 2.68 -1.36 1.36 0 0 Z " fill="#EFEFEF" transform="translate(732,569)"/>
<path d="M0 0 C1.32 0.66 2.64 1.32 4 2 C1.03 4.475 1.03 4.475 -2 7 C-2.66 6.01 -3.32 5.02 -4 4 C-2.68 2.68 -1.36 1.36 0 0 Z " fill="#EFEFEF" transform="translate(740,561)"/>
<path d="M0 0 C1.32 0.66 2.64 1.32 4 2 C1.03 4.475 1.03 4.475 -2 7 C-2.66 6.01 -3.32 5.02 -4 4 C-2.68 2.68 -1.36 1.36 0 0 Z " fill="#EFEFEF" transform="translate(748,553)"/>
<path d="M0 0 C1.32 0.66 2.64 1.32 4 2 C1.03 4.475 1.03 4.475 -2 7 C-2.66 6.01 -3.32 5.02 -4 4 C-2.68 2.68 -1.36 1.36 0 0 Z " fill="#EFEFEF" transform="translate(756,545)"/>
<path d="M0 0 C1.32 0.66 2.64 1.32 4 2 C1.03 4.475 1.03 4.475 -2 7 C-2.66 6.01 -3.32 5.02 -4 4 C-2.68 2.68 -1.36 1.36 0 0 Z " fill="#EFEFEF" transform="translate(764,537)"/>
<path d="M0 0 C1.32 0.66 2.64 1.32 4 2 C1.03 4.475 1.03 4.475 -2 7 C-2.66 6.01 -3.32 5.02 -4 4 C-2.68 2.68 -1.36 1.36 0 0 Z " fill="#EFEFEF" transform="translate(772,529)"/>
<path d="M0 0 C1.32 0.66 2.64 1.32 4 2 C1.03 4.475 1.03 4.475 -2 7 C-2.66 6.01 -3.32 5.02 -4 4 C-2.68 2.68 -1.36 1.36 0 0 Z " fill="#EFEFEF" transform="translate(780,521)"/>
<path d="M0 0 C1.32 0.66 2.64 1.32 4 2 C1.03 4.475 1.03 4.475 -2 7 C-2.66 6.01 -3.32 5.02 -4 4 C-2.68 2.68 -1.36 1.36 0 0 Z " fill="#EFEFEF" transform="translate(788,513)"/>
<path d="M0 0 C3 0 3 0 6 1 C4.35 2.65 2.7 4.3 1 6 C0.01 5.01 -0.98 4.02 -2 3 C-1.34 2.01 -0.68 1.02 0 0 Z " fill="#141414" transform="translate(771,475)"/>
<path d="M0 0 C-1.24993996 3.74981988 -2.7230706 4.86618551 -6 7 C-8.3125 6.75 -8.3125 6.75 -10 6 C-9.34 6 -8.68 6 -8 6 C-7.67 5.01 -7.34 4.02 -7 3 C-2.66666667 0 -2.66666667 0 0 0 Z " fill="#141414" transform="translate(404,328)"/>
<path d="M0 0 C3.465 1.98 3.465 1.98 7 4 C6 6 6 6 4.0625 6.75 C3.381875 6.8325 2.70125 6.915 2 7 C1.34 6.34 0.68 5.68 0 5 C0.66 5 1.32 5 2 5 C1.34 3.35 0.68 1.7 0 0 Z " fill="#131313" transform="translate(418,961)"/>
<path d="M0 0 C1.32 0.99 2.64 1.98 4 3 C3.67 3.99 3.34 4.98 3 6 C3.99 6.66 4.98 7.32 6 8 C5.01 8.495 5.01 8.495 4 9 C1.4375 6.75 1.4375 6.75 -1 4 C-0.8125 1.6875 -0.8125 1.6875 0 0 Z " fill="#181818" transform="translate(391,895)"/>
<path d="M0 0 C5.75 1.625 5.75 1.625 8 5 C7.34 5.66 6.68 6.32 6 7 C3 6 3 6 1.3125 2.9375 C0.879375 1.968125 0.44625 0.99875 0 0 Z " fill="#101010" transform="translate(563,593)"/>
<path d="M0 0 C1.98 1.65 3.96 3.3 6 5 C5.01 5.99 4.02 6.98 3 8 C0.9375 6.25 0.9375 6.25 -1 4 C-0.75 1.75 -0.75 1.75 0 0 Z " fill="#151515" transform="translate(515,542)"/>
<path d="M0 0 C0.33 0.99 0.66 1.98 1 3 C0.67 3.66 0.34 4.32 0 5 C0.99 5.33 1.98 5.66 3 6 C1.02 7.32 -0.96 8.64 -3 10 C-3.33 9.34 -3.66 8.68 -4 8 C-3.22265625 6.0546875 -3.22265625 6.0546875 -2.0625 3.875 C-1.49208984 2.78832031 -1.49208984 2.78832031 -0.91015625 1.6796875 C-0.60980469 1.12539063 -0.30945313 0.57109375 0 0 Z " fill="#E7E7E7" transform="translate(292,463)"/>
<path d="M0 0 C1.65 0.99 3.3 1.98 5 3 C4.01 3.495 4.01 3.495 3 4 C2.67 4.66 2.34 5.32 2 6 C1.67 6.33 1.34 6.66 1 7 C0.34 7 -0.32 7 -1 7 C-2 4 -2 4 -1.0625 1.8125 C-0.5365625 0.9153125 -0.5365625 0.9153125 0 0 Z " fill="#F3F3F3" transform="translate(954,412)"/>
<path d="M0 0 C0.66 0.33 1.32 0.66 2 1 C2 2.65 2 4.3 2 6 C1.34 5.67 0.68 5.34 0 5 C-2.60931266 5.89363605 -2.60931266 5.89363605 -5 7 C-5 6.01 -5 5.02 -5 4 C-2.5 1.8125 -2.5 1.8125 0 0 Z " fill="#131313" transform="translate(397,374)"/>
<path d="M0 0 C4.75 1.875 4.75 1.875 7 3 C7 3.66 7 4.32 7 5 C5.125 5.625 5.125 5.625 3 6 C2.34 5.34 1.68 4.68 1 4 C0.34 3.67 -0.32 3.34 -1 3 C-0.67 2.01 -0.34 1.02 0 0 Z " fill="#101010" transform="translate(820,329)"/>
<path d="M0 0 C0.66 0.33 1.32 0.66 2 1 C0.9024777 3.99324263 0.32317108 4.84610901 -2.625 6.25 C-3.40875 6.4975 -4.1925 6.745 -5 7 C-5.66 6.34 -6.32 5.68 -7 5 C-4.69 3.35 -2.38 1.7 0 0 Z " fill="#202020" transform="translate(851,967)"/>
<path d="M0 0 C0.99 0.33 1.98 0.66 3 1 C0.53846154 5.8 0.53846154 5.8 -2.1875 6.8125 C-2.785625 6.874375 -3.38375 6.93625 -4 7 C-2.68 4.69 -1.36 2.38 0 0 Z " fill="#111111" transform="translate(965,855)"/>
<path d="M0 0 C0 3.20395416 -0.74335022 5.09399739 -2 8 C-3.65 8 -5.3 8 -7 8 C-6.02133662 6.85373678 -5.04205413 5.70800212 -4.0625 4.5625 C-3.51722656 3.92441406 -2.97195313 3.28632812 -2.41015625 2.62890625 C-1.63204305 1.73008851 -0.84063472 0.84063472 0 0 Z " fill="#EBEBEB" transform="translate(496,757)"/>
<path d="M0 0 C0 3.20395416 -0.74335022 5.09399739 -2 8 C-3.65 8 -5.3 8 -7 8 C-6.02133662 6.85373678 -5.04205413 5.70800212 -4.0625 4.5625 C-3.51722656 3.92441406 -2.97195313 3.28632812 -2.41015625 2.62890625 C-1.63204305 1.73008851 -0.84063472 0.84063472 0 0 Z " fill="#EBEBEB" transform="translate(504,749)"/>
<path d="M0 0 C0 3.20395416 -0.74335022 5.09399739 -2 8 C-3.65 8 -5.3 8 -7 8 C-6.02133662 6.85373678 -5.04205413 5.70800212 -4.0625 4.5625 C-3.51722656 3.92441406 -2.97195313 3.28632812 -2.41015625 2.62890625 C-1.63204305 1.73008851 -0.84063472 0.84063472 0 0 Z " fill="#EBEBEB" transform="translate(512,741)"/>
<path d="M0 0 C0 1.65 0 3.3 0 5 C-0.33 4.34 -0.66 3.68 -1 3 C-3.475 4.485 -3.475 4.485 -6 6 C-6.33 5.01 -6.66 4.02 -7 3 C-3.375 0 -3.375 0 0 0 Z " fill="#070707" transform="translate(575,737)"/>
<path d="M0 0 C0 1.65 0 3.3 0 5 C-0.33 4.34 -0.66 3.68 -1 3 C-3.475 4.485 -3.475 4.485 -6 6 C-6.33 5.01 -6.66 4.02 -7 3 C-3.375 0 -3.375 0 0 0 Z " fill="#070707" transform="translate(583,729)"/>
<path d="M0 0 C0.144375 0.61875 0.28875 1.2375 0.4375 1.875 C0.93152225 4.03258322 0.93152225 4.03258322 2 6 C1.34 6.66 0.68 7.32 0 8 C-0.99 7.34 -1.98 6.68 -3 6 C-3.66 5.67 -4.32 5.34 -5 5 C-3.35 3.35 -1.7 1.7 0 0 Z " fill="#ECECEC" transform="translate(541,712)"/>
<path d="M0 0 C0 3.20395416 -0.74335022 5.09399739 -2 8 C-3.65 8 -5.3 8 -7 8 C-6.02133662 6.85373678 -5.04205413 5.70800212 -4.0625 4.5625 C-3.51722656 3.92441406 -2.97195313 3.28632812 -2.41015625 2.62890625 C-1.63204305 1.73008851 -0.84063472 0.84063472 0 0 Z " fill="#EBEBEB" transform="translate(560,693)"/>
<path d="M0 0 C0 1.65 0 3.3 0 5 C-0.33 4.34 -0.66 3.68 -1 3 C-3.475 4.485 -3.475 4.485 -6 6 C-6.33 5.01 -6.66 4.02 -7 3 C-3.375 0 -3.375 0 0 0 Z " fill="#070707" transform="translate(767,545)"/>
<path d="M0 0 C0.33 0.99 0.66 1.98 1 3 C-0.28965176 4.37562854 -1.62689293 5.70766393 -3 7 C-3.66 7 -4.32 7 -5 7 C-4.75 4.625 -4.75 4.625 -4 2 C-1.9375 0.6875 -1.9375 0.6875 0 0 Z " fill="#101010" transform="translate(343,384)"/>
<path d="M0 0 C0.99 0.495 0.99 0.495 2 1 C2 1.66 2 2.32 2 3 C2.99 3.33 3.98 3.66 5 4 C5.33 4.99 5.66 5.98 6 7 C5.34 7.66 4.68 8.32 4 9 C4 8.34 4 7.68 4 7 C3.34 7 2.68 7 2 7 C2 6.34 2 5.68 2 5 C1.34 5 0.68 5 0 5 C0 3.35 0 1.7 0 0 Z " fill="#E0E0E0" transform="translate(924,373)"/>
<path d="M0 0 C-2.62198774 2.15377564 -4.64404172 3.40072174 -8 4 C-8.33 3.34 -8.66 2.68 -9 2 C-8.34 2 -7.68 2 -7 2 C-7 1.34 -7 0.68 -7 0 C-4.3333581 -1.33332095 -2.83319697 -0.67102033 0 0 Z " fill="#1C1C1C" transform="translate(810,957)"/>
<path d="M0 0 C2.375 0.3125 2.375 0.3125 5 1 C5.66 1.99 6.32 2.98 7 4 C5.35 4.33 3.7 4.66 2 5 C1.34 3.35 0.68 1.7 0 0 Z " fill="#0F0F0F" transform="translate(541,571)"/>
<path d="M0 0 C2 3 2 3 1.625 5.6875 C1.41875 6.450625 1.2125 7.21375 1 8 C-0.65 6.35 -2.3 4.7 -4 3 C-2.68 2.01 -1.36 1.02 0 0 Z " fill="#EEEEEE" transform="translate(541,560)"/>
<path d="M0 0 C1.98 1.65 3.96 3.3 6 5 C5.01 6.485 5.01 6.485 4 8 C0 3.375 0 3.375 0 0 Z " fill="#171717" transform="translate(506,533)"/>
<path d="M0 0 C2 3 2 3 1.625 5.6875 C1.41875 6.450625 1.2125 7.21375 1 8 C-0.65 6.35 -2.3 4.7 -4 3 C-2.68 2.01 -1.36 1.02 0 0 Z " fill="#EEEEEE" transform="translate(485,504)"/>
<path d="M0 0 C1.32 0.33 2.64 0.66 4 1 C4.33 2.32 4.66 3.64 5 5 C4.01 5.33 3.02 5.66 2 6 C0 2.25 0 2.25 0 0 Z " fill="#0B0B0B" transform="translate(516,486)"/>
<path d="M0 0 C4.67692308 1.47692308 4.67692308 1.47692308 6.3125 4.125 C6.539375 4.74375 6.76625 5.3625 7 6 C5.68 6 4.36 6 3 6 C2.01 4.02 1.02 2.04 0 0 Z " fill="#131313" transform="translate(961,418)"/>
<path d="M0 0 C0.66 0.33 1.32 0.66 2 1 C1.34 2.32 0.68 3.64 0 5 C-0.66 5 -1.32 5 -2 5 C-2.66 5.66 -3.32 6.32 -4 7 C-4.99 6.34 -5.98 5.68 -7 5 C-4.69 3.35 -2.38 1.7 0 0 Z " fill="#E1E1E1" transform="translate(419,318)"/>
<path d="M0 0 C0.66 0.33 1.32 0.66 2 1 C1.01 2.485 1.01 2.485 0 4 C-2.625 4.1875 -2.625 4.1875 -5 4 C-5 4.66 -5 5.32 -5 6 C-6.32 5.34 -7.64 4.68 -9 4 C-7.54618103 3.30300448 -6.08677047 2.61766134 -4.625 1.9375 C-3.40683594 1.36322266 -3.40683594 1.36322266 -2.1640625 0.77734375 C-1.44992187 0.52082031 -0.73578125 0.26429688 0 0 Z " fill="#DCDCDC" transform="translate(493,278)"/>
<path d="M0 0 C-2 3 -2 3 -4 3.8125 C-4.66 3.874375 -5.32 3.93625 -6 4 C-6.66 3.34 -7.32 2.68 -8 2 C-8 1.34 -8 0.68 -8 0 C-5.13822943 -1.43088528 -3.06624227 -0.59991697 0 0 Z " fill="#161616" transform="translate(550,1019)"/>
<path d="M0 0 C0.66 0.99 1.32 1.98 2 3 C1.34 3.66 0.68 4.32 0 5 C-2.625 4.625 -2.625 4.625 -5 4 C-3.36587557 2.29159719 -2.13093906 1.06546953 0 0 Z " fill="#E6E6E6" transform="translate(815,954)"/>
<path d="M0 0 C2.52588702 2.36292656 3.88820837 3.66462511 5 7 C4.34 7.66 3.68 8.32 3 9 C2.67 8.01 2.34 7.02 2 6 C1.01 5.34 0.02 4.68 -1 4 C-0.67 2.68 -0.34 1.36 0 0 Z " fill="#131313" transform="translate(314,855)"/>
<path d="M0 0 C0.66 0.33 1.32 0.66 2 1 C0.68775452 4.93673644 -0.91910327 7.22719294 -4 10 C-4.66 9.67 -5.32 9.34 -6 9 C-4.02 6.03 -2.04 3.06 0 0 Z " fill="#E7E7E7" transform="translate(940,838)"/>
<path d="M0 0 C0 1.65 0 3.3 0 5 C-0.33 4.34 -0.66 3.68 -1 3 C-1.99 3 -2.98 3 -4 3 C-4.66 3.99 -5.32 4.98 -6 6 C-6.33 5.01 -6.66 4.02 -7 3 C-4.49955934 -0.00052879 -4.2621484 0 0 0 Z " fill="#090909" transform="translate(511,801)"/>
<path d="M0 0 C2.475 0.495 2.475 0.495 5 1 C4.67 2.65 4.34 4.3 4 6 C1 4 1 4 0.3125 1.875 C0.209375 1.25625 0.10625 0.6375 0 0 Z " fill="#0B0B0B" transform="translate(501,531)"/>
<path d="M0 0 C0.33 0.99 0.66 1.98 1 3 C-1.39509338 5.89932357 -3.31245243 6.50168276 -7 7 C-4.66666667 4.66666667 -2.33333333 2.33333333 0 0 Z " fill="#DDDDDD" transform="translate(499,481)"/>
<path d="M0 0 C0.66 0.66 1.32 1.32 2 2 C1.625 5.125 1.625 5.125 1 8 C-0.32 6.68 -1.64 5.36 -3 4 C-2.34 3.34 -1.68 2.68 -1 2 C-0.67 1.34 -0.34 0.68 0 0 Z " fill="#1F1F1F" transform="translate(781,474)"/>
<path d="M0 0 C0.66 0.33 1.32 0.66 2 1 C1.34 2.32 0.68 3.64 0 5 C-0.99 5 -1.98 5 -3 5 C-3.66 4.01 -4.32 3.02 -5 2 C-2.625 0.9375 -2.625 0.9375 0 0 Z " fill="#F5F5F5" transform="translate(956,456)"/>
<path d="M0 0 C0.66 1.32 1.32 2.64 2 4 C1.34 4 0.68 4 0 4 C-0.33 4.66 -0.66 5.32 -1 6 C-1.99 6.495 -1.99 6.495 -3 7 C-3.66 6.34 -4.32 5.68 -5 5 C-3.35 3.35 -1.7 1.7 0 0 Z " fill="#181818" transform="translate(375,396)"/>
<path d="M0 0 C2.3125 0.1875 2.3125 0.1875 4 1 C-0.39453125 5.00390625 -0.39453125 5.00390625 -2 6 C-2.99 5.67 -3.98 5.34 -5 5 C-2.75 2.4375 -2.75 2.4375 0 0 Z " fill="#ECECEC" transform="translate(352,377)"/>
<path d="M0 0 C3 1 3 1 5 4 C2.03 3.67 -0.94 3.34 -4 3 C-2.1875 1.4375 -2.1875 1.4375 0 0 Z " fill="#171717" transform="translate(486,314)"/>
<path d="M0 0 C0 2 0 2 -2.5 4.625 C-3.325 5.40875 -4.15 6.1925 -5 7 C-7 6 -7 6 -8 3 C-2.25 0 -2.25 0 0 0 Z " fill="#E4E4E4" transform="translate(461,294)"/>
<path d="M0 0 C2.625 0.9375 2.625 0.9375 5 2 C5 2.99 5 3.98 5 5 C2.08482708 3.92598892 0.22189824 3.22189824 -2 1 C-1.34 0.67 -0.68 0.34 0 0 Z " fill="#E9E9E9" transform="translate(438,971)"/>
<path d="M0 0 C0.66 0.99 1.32 1.98 2 3 C0.35 4.65 -1.3 6.3 -3 8 C-3.33 6.68 -3.66 5.36 -4 4 C-2.68 3.34 -1.36 2.68 0 2 C0 1.34 0 0.68 0 0 Z " fill="#EFEFEF" transform="translate(928,898)"/>
<path d="M0 0 C0.33 0.99 0.66 1.98 1 3 C-0.21484375 4.82421875 -0.21484375 4.82421875 -1.9375 6.6875 C-2.50339844 7.31011719 -3.06929687 7.93273437 -3.65234375 8.57421875 C-4.09707031 9.04472656 -4.54179688 9.51523437 -5 10 C-5.66 9.67 -6.32 9.34 -7 9 C-4.69 6.03 -2.38 3.06 0 0 Z " fill="#DCDCDC" transform="translate(924,860)"/>
<path d="M0 0 C0.99 0.33 1.98 0.66 3 1 C3 1.66 3 2.32 3 3 C3.33 3.99 3.66 4.98 4 6 C3.01 6 2.02 6 1 6 C0.34 5.34 -0.32 4.68 -1 4 C-0.625 1.875 -0.625 1.875 0 0 Z " fill="#141414" transform="translate(785,754)"/>
<path d="M0 0 C0.33 1.32 0.66 2.64 1 4 C0.01 4.66 -0.98 5.32 -2 6 C-2.99 5.01 -3.98 4.02 -5 3 C-3.35 2.01 -1.7 1.02 0 0 Z " fill="#0F0F0F" transform="translate(524,725)"/>
<path d="M0 0 C0.99 0.33 1.98 0.66 3 1 C3 1.66 3 2.32 3 3 C3.33 3.99 3.66 4.98 4 6 C3.01 6 2.02 6 1 6 C0.34 5.34 -0.32 4.68 -1 4 C-0.625 1.875 -0.625 1.875 0 0 Z " fill="#141414" transform="translate(721,690)"/>
<path d="M0 0 C0.99 0.66 1.98 1.32 3 2 C1.68 3.65 0.36 5.3 -1 7 C-1.625 4.625 -1.625 4.625 -2 2 C-1.34 1.34 -0.68 0.68 0 0 Z " fill="#F0F0F0" transform="translate(331,449)"/>
<path d="M0 0 C1 3 1 3 0.3125 5.125 C-1 7 -1 7 -5 8 C-3.35 5.36 -1.7 2.72 0 0 Z " fill="#DADADA" transform="translate(323,412)"/>
<path d="M0 0 C1.32 0 2.64 0 4 0 C3 3 3 3 -0.0625 4.6875 C-1.031875 5.120625 -2.00125 5.55375 -3 6 C-1.125 1.125 -1.125 1.125 0 0 Z " fill="#131313" transform="translate(421,313)"/>
<path d="M0 0 C1.66666667 0 3.33333333 0 5 0 C4.67 2.31 4.34 4.62 4 7 C2.10786631 4.61426621 0.97608217 2.92824652 0 0 Z " fill="#E5E5E5" transform="translate(289,810)"/>
<path d="M0 0 C0.99 0.495 0.99 0.495 2 1 C1.01 1.495 1.01 1.495 0 2 C0 1.34 0 0.68 0 0 Z M-1 2 C-0.67 2.99 -0.34 3.98 0 5 C-1.8125 6.0625 -1.8125 6.0625 -4 7 C-4.99 6.67 -5.98 6.34 -7 6 C-5.02 4.68 -3.04 3.36 -1 2 Z " fill="#303030" transform="translate(783,796)"/>
<path d="M0 0 C1.98 1.65 3.96 3.3 6 5 C4.68 5.33 3.36 5.66 2 6 C0 3 0 3 0 0 Z " fill="#181818" transform="translate(746,773)"/>
<path d="M0 0 C1.98 1.65 3.96 3.3 6 5 C4.68 5.33 3.36 5.66 2 6 C0 3 0 3 0 0 Z " fill="#181818" transform="translate(738,765)"/>
<path d="M0 0 C0.33 0.66 0.66 1.32 1 2 C1.99 2.33 2.98 2.66 4 3 C2.35 4.32 0.7 5.64 -1 7 C-1 3 -1 3 0 0 Z " fill="#161616" transform="translate(486,761)"/>
<path d="M0 0 C0 3.5595477 -0.61579539 4.44549506 -3 7 C-5.109375 7.6171875 -5.109375 7.6171875 -7 8 C-6.02133662 6.85373678 -5.04205413 5.70800212 -4.0625 4.5625 C-3.51722656 3.92441406 -2.97195313 3.28632812 -2.41015625 2.62890625 C-1.63204305 1.73008851 -0.84063472 0.84063472 0 0 Z " fill="#1B1B1B" transform="translate(558,748)"/>
<path d="M0 0 C1.98 1.65 3.96 3.3 6 5 C4.68 5.33 3.36 5.66 2 6 C0 3 0 3 0 0 Z " fill="#181818" transform="translate(714,741)"/>
<path d="M0 0 C1.98 1.65 3.96 3.3 6 5 C4.68 5.33 3.36 5.66 2 6 C0 3 0 3 0 0 Z " fill="#181818" transform="translate(706,733)"/>
<path d="M0 0 C3.16115776 1.36983503 3.9927092 1.9890638 6 5 C5.34 5.66 4.68 6.32 4 7 C1.49962266 4.82575883 0.56371414 3.26954202 0 0 Z " fill="#131313" transform="translate(677,705)"/>
<path d="M0 0 C1.10191901 4.40767604 0.58706842 5.8922935 -1 10 C-1.66 9.67 -2.32 9.34 -3 9 C-2.01 6.03 -1.02 3.06 0 0 Z " fill="#1E1E1E" transform="translate(708,670)"/>
<path d="M0 0 C2.475 0.495 2.475 0.495 5 1 C4.67 2.32 4.34 3.64 4 5 C3.01 4.67 2.02 4.34 1 4 C0.3125 1.9375 0.3125 1.9375 0 0 Z " fill="#0B0B0B" transform="translate(533,563)"/>
<path d="M0 0 C1.98 1.65 3.96 3.3 6 5 C4.68 5.33 3.36 5.66 2 6 C0 3 0 3 0 0 Z " fill="#181818" transform="translate(498,525)"/>
<path d="M0 0 C1.98 1.65 3.96 3.3 6 5 C4.68 5.33 3.36 5.66 2 6 C0 3 0 3 0 0 Z " fill="#181818" transform="translate(490,517)"/>
<path d="M0 0 C1.65 1.65 3.3 3.3 5 5 C4.34 5.66 3.68 6.32 3 7 C3 6.34 3 5.68 3 5 C1.68 4.34 0.36 3.68 -1 3 C-0.67 2.01 -0.34 1.02 0 0 Z " fill="#EEEEEE" transform="translate(897,347)"/>
<path d="M0 0 C-0.66 1.65 -1.32 3.3 -2 5 C-4.475 4.01 -4.475 4.01 -7 3 C-2.5 0 -2.5 0 0 0 Z " fill="#242424" transform="translate(527,298)"/>
<path d="M0 0 C-2.62198774 2.15377564 -4.64404172 3.40072174 -8 4 C-8.33 3.01 -8.66 2.02 -9 1 C-6.04335481 -0.4783226 -3.25770263 -0.06032783 0 0 Z " fill="#1B1B1B" transform="translate(798,963)"/>
<path d="M0 0 C2.375 0.25 2.375 0.25 5 1 C6.3125 3.0625 6.3125 3.0625 7 5 C6.38125 4.649375 5.7625 4.29875 5.125 3.9375 C4.42375 3.628125 3.7225 3.31875 3 3 C2.01 3.495 2.01 3.495 1 4 C0.67 2.68 0.34 1.36 0 0 Z " fill="#F2F2F2" transform="translate(424,930)"/>
<path d="M0 0 C0.99 0.33 1.98 0.66 3 1 C1.35 2.65 -0.3 4.3 -2 6 C-2 4.68 -2 3.36 -2 2 C-1.34 2 -0.68 2 0 2 C0 1.34 0 0.68 0 0 Z " fill="#0D0D0D" transform="translate(884,900)"/>
<path d="M0 0 C0.99 0.66 1.98 1.32 3 2 C2.67 3.65 2.34 5.3 2 7 C0.68 5.68 -0.64 4.36 -2 3 C-1.34 2.01 -0.68 1.02 0 0 Z " fill="#151515" transform="translate(777,745)"/>
<path d="M0 0 C0.99 0.66 1.98 1.32 3 2 C2.67 3.65 2.34 5.3 2 7 C0.68 5.68 -0.64 4.36 -2 3 C-1.34 2.01 -0.68 1.02 0 0 Z " fill="#151515" transform="translate(761,729)"/>
<path d="M0 0 C2.96175123 0.61277612 4.38058783 1.25372522 7 3 C5.02 3.99 5.02 3.99 3 5 C1.5 3.625 1.5 3.625 0 2 C0 1.34 0 0.68 0 0 Z " fill="#161616" transform="translate(752,724)"/>
<path d="M0 0 C0.99 0.66 1.98 1.32 3 2 C2.67 3.65 2.34 5.3 2 7 C0.68 5.68 -0.64 4.36 -2 3 C-1.34 2.01 -0.68 1.02 0 0 Z " fill="#151515" transform="translate(729,697)"/>
<path d="M0 0 C0.66 0.99 1.32 1.98 2 3 C1.34 4.32 0.68 5.64 0 7 C-2 3.25 -2 3.25 -2 1 C-1.34 0.67 -0.68 0.34 0 0 Z " fill="#1A1A1A" transform="translate(573,674)"/>
<path d="M0 0 C0.99 0.66 1.98 1.32 3 2 C2.67 3.65 2.34 5.3 2 7 C0.68 5.68 -0.64 4.36 -2 3 C-1.34 2.01 -0.68 1.02 0 0 Z " fill="#151515" transform="translate(585,553)"/>
<path d="M0 0 C0.99 0.66 1.98 1.32 3 2 C2.67 3.65 2.34 5.3 2 7 C0.68 5.68 -0.64 4.36 -2 3 C-1.34 2.01 -0.68 1.02 0 0 Z " fill="#151515" transform="translate(577,545)"/>
<path d="M0 0 C0.99 0.66 1.98 1.32 3 2 C2.67 3.65 2.34 5.3 2 7 C0.68 5.68 -0.64 4.36 -2 3 C-1.34 2.01 -0.68 1.02 0 0 Z " fill="#151515" transform="translate(553,521)"/>
<path d="M0 0 C1.32 0.66 2.64 1.32 4 2 C3.67 2.99 3.34 3.98 3 5 C1.68 4.67 0.36 4.34 -1 4 C-0.67 2.68 -0.34 1.36 0 0 Z " fill="#F7F7F7" transform="translate(484,496)"/>
<path d="M0 0 C4.31392226 0.4793247 6.16569547 1.7457985 9 5 C7.68 5.33 6.36 5.66 5 6 C4.731875 5.195625 4.46375 4.39125 4.1875 3.5625 C3.795625 2.716875 3.40375 1.87125 3 1 C2.01 0.67 1.02 0.34 0 0 Z " fill="#E9E9E9" transform="translate(777,481)"/>
<path d="M0 0 C0.66 0.33 1.32 0.66 2 1 C0.66667905 4.99996286 -1.4957827 5.83782337 -5 8 C-3.62845496 5.04590299 -2.01136276 2.55991624 0 0 Z " fill="#272727" transform="translate(364,408)"/>
<path d="M0 0 C2.475 0.99 2.475 0.99 5 2 C4.67 2.99 4.34 3.98 4 5 C1.525 4.01 1.525 4.01 -1 3 C-0.67 2.01 -0.34 1.02 0 0 Z " fill="#E5E5E5" transform="translate(781,306)"/>
</svg>
